<svg xmlns="http://www.w3.org/2000/svg" viewBox="0 0 210 210" fill="none" shape-rendering="auto"><metadata xmlns:rdf="http://www.w3.org/1999/02/22-rdf-syntax-ns#" xmlns:xsi="http://www.w3.org/2001/XMLSchema-instance" xmlns:dc="http://purl.org/dc/elements/1.1/" xmlns:dcterms="http://purl.org/dc/terms/"><rdf:RDF><rdf:Description><dc:title>Face Generator</dc:title><dc:creator>The Visual Team</dc:creator><dc:source xsi:type="dcterms:URI">https://www.figma.com/community/file/986078800058673824</dc:source><dcterms:license xsi:type="dcterms:URI">https://creativecommons.org/licenses/by/4.0/</dcterms:license><dc:rights>Remix of „Face Generator” (https://www.figma.com/community/file/986078800058673824) by „The Visual Team”, licensed under „CC BY 4.0” (https://creativecommons.org/licenses/by/4.0/)</dc:rights></rdf:Description></rdf:RDF></metadata><mask id="viewboxMask"><rect width="210" height="210" rx="0" ry="0" x="0" y="0" fill="#fff" /></mask><g mask="url(#viewboxMask)"><rect fill="#c07f50" width="210" height="210" x="0" y="0" /><g transform="translate(86.8 138.9) scale(.71856)"><path d="M58.4 39.3c0 17.1-13.9 4.2-31 4.2s-31 13-31-4.2a31 31 0 0 1 62 0Z" fill="#DE8383"/><path fill-rule="evenodd" clip-rule="evenodd" d="M52.7 22.6h-51A29.8 29.8 0 0 1 27.4 8C38 8 47.5 13.9 52.7 22.6Z" fill="#F9F9F9"/></g><g transform="translate(2 11) scale(.71856)"><g stroke="#000" stroke-linecap="round"><path d="M106 43c-3.6 2.9-9.3 8.7-20.3 8.7-9.4 0-17.3-6.4-18.7-8.7M184.9 43c3.7 2.9 9.3 8.7 20.4 8.7 9.4 0 17.3-6.4 18.7-8.7" stroke-width="7"/><path d="m73 74 35.5 15.5L73 110M220.5 74 185 89.5l35.5 20.5" stroke-width="4" stroke-linejoin="round"/></g></g><g transform="translate(15 89.2) scale(.71856)"><g fill="#000" fill-opacity=".4"><rect x="33" y="38.5" width="12.9" height="12.9" rx="6.4"/><rect x="57.1" y="24" width="12.9" height="14.5" rx="6.4"/><rect x="76.4" y="38.5" width="12.9" height="12.9" rx="6.4"/><rect x="166.4" y="38.5" width="12.9" height="12.9" rx="6.4"/><rect x="190.5" y="24" width="12.9" height="14.5" rx="6.4"/><rect x="209.8" y="38.5" width="12.9" height="12.9" rx="6.4"/></g></g><g transform="translate(80.3 79.8) scale(.71856)"><g fill="#000" fill-opacity=".2"><rect x="25.9" y="51.5" width="11.7" height="8.9" rx="4.4" transform="rotate(-90 25.9 51.5)"/><rect x="43.7" y="51.5" width="11.7" height="8.9" rx="4.4" transform="rotate(-90 43.7 51.5)"/><path d="M61.2 41.4c.2-.8.2-1.7.2-2.5C61.4 29.6 54 22 44.5 22H34a16.9 16.9 0 0 0-16.7 19.4A16.9 16.9 0 0 1 33.9 27h10.6C53 27 60 33.2 61.2 41.4Z"/></g></g></g></svg>