<svg xmlns="http://www.w3.org/2000/svg" viewBox="0 0 440 440" fill="none" shape-rendering="auto"><metadata xmlns:rdf="http://www.w3.org/1999/02/22-rdf-syntax-ns#" xmlns:xsi="http://www.w3.org/2001/XMLSchema-instance" xmlns:dc="http://purl.org/dc/elements/1.1/" xmlns:dcterms="http://purl.org/dc/terms/"><rdf:RDF><rdf:Description><dc:title>Face Generator</dc:title><dc:creator>The Visual Team</dc:creator><dc:source xsi:type="dcterms:URI">https://www.figma.com/community/file/986078800058673824</dc:source><dcterms:license xsi:type="dcterms:URI">https://creativecommons.org/licenses/by/4.0/</dcterms:license><dc:rights>Remix of „Face Generator” (https://www.figma.com/community/file/986078800058673824) by „The Visual Team”, licensed under „CC BY 4.0” (https://creativecommons.org/licenses/by/4.0/)</dc:rights></rdf:Description></rdf:RDF></metadata><mask id="viewboxMask"><rect width="440" height="440" rx="0" ry="0" x="0" y="0" fill="#fff" /></mask><g mask="url(#viewboxMask)"><g transform="matrix(.71048 0 0 .71048 24 2)"><g fill="#2c1b18"><path d="M76.6 230.4C90 111 191.9 51.4 284.6 55.2c142.2 5.7 195.1 107.5 201.5 175.2 5.4 58 63.2 117.2 23.9 174-64.6 93-259.2 81.5-333.9 41.1-76-41.1-108.9-132.9-99.5-215.1Z"/><path d="M516.6 454c28.3-77-7.2-159.8-35.7-198.5-15.1-21.7-73.5 114-181 149.5-107.3 35.6-105.3 128.6-33.8 155.5C337.6 587.4 488.4 531 516.6 454Z"/></g></g><g transform="translate(81.7 150.7) scale(.71856)"><path d="M190.5 37C120.6 37 64 102.1 64 182.5a170.3 170.3 0 0 0 0 3C64 265.8 120.6 361 190.5 361S317 265.8 317 185.5a182.4 182.4 0 0 0 0-3C317 102 260.4 37 190.5 37Z" fill="#a66637"/><path d="M64 181.5v4C64 265.8 120.6 361 190.5 361S317 265.8 317 185.5v-4C315 261 259.2 353 190.5 353S65.9 261 64 181.5Z" fill="#000" fill-opacity=".2"/></g><g transform="translate(199.5 333.4) scale(.71856)"><g fill="#DE8383"><path d="M59.8 28.1a31 31 0 1 1-62 0 31 31 0 0 1 62 0Z"/><path fill-rule="evenodd" clip-rule="evenodd" d="M57 19.5H.7A31.1 31.1 0 0 1 29 1.3c12.5 0 23.2 7.5 28 18.2Z"/></g><path fill-rule="evenodd" clip-rule="evenodd" d="M57 15.1H.7A31.1 31.1 0 0 1 29-3c12.5 0 23.2 7.5 28 18.2Z" fill="#F9F9F9"/></g><g transform="translate(280.7 235.4) scale(.71856)"><rect x="20" y="22" width="88" height="88.1" rx="44" fill="#a66637"/><rect x="29.8" y="31.8" width="68.4" height="68.5" rx="34.2" fill="#000" fill-opacity=".2"/><rect x="23.9" y="49.4" width="37.2" height="37.2" rx="18.6" fill="#a66637"/></g><g transform="matrix(-.71856 0 0 .71856 161.5 235.4)"><rect x="20" y="22" width="88" height="88.1" rx="44" fill="#a66637"/><rect x="29.8" y="31.8" width="68.4" height="68.5" rx="34.2" fill="#000" fill-opacity=".2"/><rect x="23.9" y="49.4" width="37.2" height="37.2" rx="18.6" fill="#a66637"/></g><g transform="translate(114.8 215.5) scale(.71856)"><path d="M78.2 51.4c3.1-2.5 8-7.4 17.3-7.4 8 0 14.6 5.4 15.8 7.4M179.2 51.4c3-2.5 7.9-7.4 17.2-7.4 8 0 14.7 5.4 15.9 7.4" stroke="#000" stroke-width="3.7" stroke-linecap="round"/><rect x="72" y="64.7" width="43.3" height="52.9" rx="14.4" fill="#fff"/><rect x="173" y="64.7" width="43.3" height="52.9" rx="14.4" fill="#fff"/><path d="M184 76.7a12 12 0 0 1 12.2-12l10 .1a12 12 0 0 1 11.8 12V106a12 12 0 0 1-12 12h-10a12 12 0 0 1-12-12V76.7ZM83 76.7a12 12 0 0 1 12.2-12l10 .1a12 12 0 0 1 11.8 12V106a12 12 0 0 1-12 12H95a12 12 0 0 1-12-12V76.7Z" fill="#757575"/><rect x="90.6" y="76.2" width="18.6" height="29" rx="9.3" fill="#000"/><rect x="191.6" y="76.2" width="18.6" height="29" rx="9.3" fill="#000"/></g><g transform="translate(127.7 288.7) scale(.71856)"><g fill="#F88888"><rect x="11" y="16" width="56.3" height="43.4" rx="21.7"/><rect x="191" y="16" width="56.3" height="43.4" rx="21.7"/></g></g><g transform="translate(193 279.4) scale(.71856)"><path d="M18.6 38.3A10 10 0 0 0 29 45a10 10 0 0 0 19.4 0h.9a10 10 0 0 0 9.5-6.7 10 10 0 0 1-10.4 13.4 10 10 0 0 1-19.4 0H28a10 10 0 0 1-9.5-13.4Z" fill="#000" fill-opacity=".2"/></g><g transform="matrix(.52237 0 0 .52237 122.9 244.8)"><path d="M32.5 87.5C8.1 87.5 2.5 32.5 5 4h27.5c-6.2 16-3.2 29.8-1.5 47 2 20 21.3 5.1 25.4-2.7.5 15.6-12 39.2-23.9 39.2Z" fill="#2c1b18"/></g><g transform="matrix(-.52237 0 0 .52237 315.7 244.8)"><path d="M32.5 87.5C8.1 87.5 2.5 32.5 5 4h27.5c-6.2 16-3.2 29.8-1.5 47 2 20 21.3 5.1 25.4-2.7.5 15.6-12 39.2-23.9 39.2Z" fill="#2c1b18"/></g><g transform="matrix(.52237 0 0 .52237 108.7 145.6)"><g fill="#2c1b18"><path d="M374 133c6.5 15.9 11.5 34.5 11.5 70-11 0-38.5 11-92.5-18-54.8-29.5-68.9-59.5-82-79-13 27-37 51.3-72.5 73.5C103 201.7 54.2 200.5 38 203c0-23.1 2-46 10.9-67.4A176 176 0 0 1 211 27a175 175 0 0 1 124 51.5c16.4 16.4 30.2 33.1 39 54.5Z"/><path d="M210 148c10.4-22.4 12-39.5 12-47.5-4.5-25-20.5-14-22-7.5s.5 17-1.5 43c-1.6 20.8-22.3 46-34 54a90.6 90.6 0 0 0 45.5-42Z"/></g></g></g></svg>