<svg xmlns="http://www.w3.org/2000/svg" viewBox="0 0 440 440" fill="none" shape-rendering="auto"><metadata xmlns:rdf="http://www.w3.org/1999/02/22-rdf-syntax-ns#" xmlns:xsi="http://www.w3.org/2001/XMLSchema-instance" xmlns:dc="http://purl.org/dc/elements/1.1/" xmlns:dcterms="http://purl.org/dc/terms/"><rdf:RDF><rdf:Description><dc:title>Face Generator</dc:title><dc:creator>The Visual Team</dc:creator><dc:source xsi:type="dcterms:URI">https://www.figma.com/community/file/986078800058673824</dc:source><dcterms:license xsi:type="dcterms:URI">https://creativecommons.org/licenses/by/4.0/</dcterms:license><dc:rights>Remix of „Face Generator” (https://www.figma.com/community/file/986078800058673824) by „The Visual Team”, licensed under „CC BY 4.0” (https://creativecommons.org/licenses/by/4.0/)</dc:rights></rdf:Description></rdf:RDF></metadata><mask id="viewboxMask"><rect width="440" height="440" rx="0" ry="0" x="0" y="0" fill="#fff" /></mask><g mask="url(#viewboxMask)"><g transform="matrix(.71048 0 0 .71048 24 2)"><path d="M253.3 156.2c76.7-3 104.7 35 110.6 55.5 47.1 0 81.2 35 87 81.8 4.8 37.4-7.2 56.5-23.7 77.4a53.4 53.4 0 0 1-30.7 18.8c-16.6 5-18 6.3-57 6.3h-67.6c-51.6 0-71.7-7-95.3-17.4-26.6-11.7-76.6-32.1-76.6-106 0-59.2 76.7-113.5 153.3-116.4Z" fill="#b58143"/></g><g transform="translate(81.7 150.7) scale(.71856)"><circle cx="190.2" cy="167.2" r="121.2" fill="#a66637"/><path fill="#a66637" d="M69 164.5h242.4v191.2H69z"/><path d="M69 336h242v20H69v-20Z" fill="#000" fill-opacity=".2"/></g><g transform="translate(199.5 333.4) scale(.71856)"><path fill-rule="evenodd" clip-rule="evenodd" d="M-13.2 18c1.4 0 2.6 1 2.7 2.4.2 3 1.3 7.6 4.1 11.4a16 16 0 0 0 13.7 6.6c6.8 0 11-3 13.7-6.6 2.8-3.8 4-8.4 4.1-11.4a2.5 2.5 0 0 1 5.1 0c.1 3 1.2 7.6 3.9 11.4 2.6 3.6 7 6.6 14 6.6s11.3-3 14-6.6c2.7-3.8 3.7-8.3 3.8-11.3a2.5 2.5 0 0 1 5 .1c0 3.8-1.3 9.4-4.7 14.2A21.3 21.3 0 0 1 48 43.5a21.3 21.3 0 0 1-20.5-12.8c-.7 1.4-1.5 2.8-2.5 4a21.2 21.2 0 0 1-17.8 8.8c-8.5 0-14.2-3.9-17.8-8.7a27.7 27.7 0 0 1-5-14.1c-.2-1.4.9-2.6 2.3-2.7Z" fill="#000"/></g><g transform="translate(280.7 235.4) scale(.71856)"><rect x="21" y="21" width="88.1" height="88.1" rx="44.1" fill="#a66637"/><path d="M87 43 42.5 84.5" stroke="#000" stroke-opacity=".2" stroke-width="5" stroke-linecap="round" stroke-linejoin="round"/></g><g transform="matrix(-.71856 0 0 .71856 161.5 235.4)"><rect x="21" y="21" width="88.1" height="88.1" rx="44.1" fill="#a66637"/><path d="M87 43 42.5 84.5" stroke="#000" stroke-opacity=".2" stroke-width="5" stroke-linecap="round" stroke-linejoin="round"/></g><g transform="translate(114.8 215.5) scale(.71856)"><path d="M120.9 100.5s-24.3 11.7-35.7 11.7c-11.5 0-31.2-11.7-31.2-11.7s22-11.7 33.5-11.7c11.4 0 33.4 11.7 33.4 11.7ZM235.3 100.5s-24.3 11.7-35.7 11.7c-11.5 0-31.2-11.7-31.2-11.7s22-11.7 33.5-11.7c11.4 0 33.4 11.7 33.4 11.7Z" fill="#fff"/><circle cx="89.1" cy="100.5" r="11.7" fill="#000"/><circle cx="200.2" cy="100.5" r="11.7" fill="#000"/><path fill="#403E3E" d="M49 52h76.9v20.1H49zM161.4 52h76.9v20.1h-76.9z"/></g><g transform="translate(127.7 288.7) scale(.71856)"></g><g transform="translate(193 279.4) scale(.71856)"><path d="M5.6 34.4a17 17 0 0 0 16.3 21.4h33.7A16.9 16.9 0 0 0 72 34.4C70 41.6 63.4 47 55.6 47H22c-7.8 0-14.4-5.3-16.3-12.5Z" fill="#000" fill-opacity=".2"/></g><g transform="matrix(.52237 0 0 .52237 122.9 244.8)"><path d="M18 31.8C17.3 12.2 15 2.3 32 0c19.6 3.6 14 22.6 12 31.8-2.2 9.3 9.5 19 7.4 39.4-2 20.4-25 30-36 12.8-14-22 3.5-32.6 2.7-52.2Z" fill="#b58143"/></g><g transform="matrix(-.52237 0 0 .52237 315.7 244.8)"><path d="M18 31.8C17.3 12.2 15 2.3 32 0c19.6 3.6 14 22.6 12 31.8-2.2 9.3 9.5 19 7.4 39.4-2 20.4-25 30-36 12.8-14-22 3.5-32.6 2.7-52.2Z" fill="#b58143"/></g><g transform="matrix(.52237 0 0 .52237 108.7 145.6)"><g fill="#b58143"><path d="M374 131c6.5 15.9 11.5 34.5 11.5 70-11 0-38.5 11-92.5-18-54.8-29.5-68.9-59.5-82-79-13 27-37 51.3-72.5 73.5C103 199.7 54.2 198.5 38 201c0-23.1 2-46 10.9-67.4A176 176 0 0 1 211 25a175 175 0 0 1 124 51.5c16.4 16.4 30.2 33.1 39 54.5Z"/><path d="M302 77c-11.6-28.6-41.2-46.3-87-39.6-30.2 3.7-48.3 24.3-67.4 39.6-19.2 15.3-44.3 49.6-24.2 83.5 20.1 33.8 163.5 72.5 212.8 6.7 26.6-35.6-22.6-61.6-34.2-90.2Z"/></g></g></g></svg>