<svg xmlns="http://www.w3.org/2000/svg" viewBox="0 0 440 440" fill="none" shape-rendering="auto"><metadata xmlns:rdf="http://www.w3.org/1999/02/22-rdf-syntax-ns#" xmlns:xsi="http://www.w3.org/2001/XMLSchema-instance" xmlns:dc="http://purl.org/dc/elements/1.1/" xmlns:dcterms="http://purl.org/dc/terms/"><rdf:RDF><rdf:Description><dc:title>Face Generator</dc:title><dc:creator>The Visual Team</dc:creator><dc:source xsi:type="dcterms:URI">https://www.figma.com/community/file/986078800058673824</dc:source><dcterms:license xsi:type="dcterms:URI">https://creativecommons.org/licenses/by/4.0/</dcterms:license><dc:rights>Remix of „Face Generator” (https://www.figma.com/community/file/986078800058673824) by „The Visual Team”, licensed under „CC BY 4.0” (https://creativecommons.org/licenses/by/4.0/)</dc:rights></rdf:Description></rdf:RDF></metadata><mask id="viewboxMask"><rect width="440" height="440" rx="0" ry="0" x="0" y="0" fill="#fff" /></mask><g mask="url(#viewboxMask)"><g transform="matrix(.71048 0 0 .71048 24 2)"><path d="M293 197h-35a138 138 0 0 0 0 276h35a138 138 0 0 0 0-276Z" fill="#2c1b18"/></g><g transform="translate(81.7 150.7) scale(.71856)"><circle cx="189.5" cy="199.5" r="133.5" fill="#da9969"/><path d="M323.3 192.3a133.8 133.8 0 0 1-267.1 0 133.7 133.7 0 1 0 267.1 0Z" fill="#000" fill-opacity=".2"/></g><g transform="translate(199.5 333.4) scale(.71856)"><path d="M59 19.4a31 31 0 1 1-62 0c0-17.2 13.8-4.2 31-4.2 17 0 31-13 31 4.2Z" fill="#DE8383"/><path fill-rule="evenodd" clip-rule="evenodd" d="M57.5 28.6H-1.7c-.9-3-1.3-6-1.3-9.2 0-11.2 5.9-9.6 14.8-7a59.5 59.5 0 0 0 16.1 2.8c6 0 11.5-1.5 16.2-2.9 9-2.5 14.8-4.1 14.8 7a31 31 0 0 1-1.4 9.3Z" fill="#F9F9F9"/></g><g transform="translate(280.7 235.4) scale(.71856)"><rect x="20" y="22" width="88" height="88.1" rx="44" fill="#da9969"/><rect x="29.8" y="31.8" width="68.4" height="68.5" rx="34.2" fill="#000" fill-opacity=".2"/><rect x="23.9" y="49.4" width="37.2" height="37.2" rx="18.6" fill="#da9969"/></g><g transform="matrix(-.71856 0 0 .71856 161.5 235.4)"><rect x="20" y="22" width="88" height="88.1" rx="44" fill="#da9969"/><rect x="29.8" y="31.8" width="68.4" height="68.5" rx="34.2" fill="#000" fill-opacity=".2"/><rect x="23.9" y="49.4" width="37.2" height="37.2" rx="18.6" fill="#da9969"/></g><g transform="translate(114.8 215.5) scale(.71856)"><path d="M58.7 45.3A60 60 0 0 1 91.4 36c18 0 34.8 7.8 32.6 9.3 0 18-3.3 0-31.6 0-30.5 0-33.7 18-33.7 0ZM165.7 45.3a60 60 0 0 1 32.7-9.3c18 0 34.8 7.8 32.6 9.3 0 18-3.3 0-31.6 0-30.5 0-33.7 18-33.7 0Z" fill="#000"/><path d="M87.3 69.1a4.1 4.1 0 0 1 7.8 0l3.3 10a4.1 4.1 0 0 0 4 3h10.5c4 0 5.7 5 2.4 7.4l-8.5 6.2c-1.5 1-2 3-1.5 4.6l3.2 10c1.3 3.9-3 7-6.3 4.7l-8.6-6.2c-1.4-1-3.4-1-4.8 0l-8.6 6.2a4.1 4.1 0 0 1-6.3-4.6l3.2-10c.6-1.8 0-3.6-1.5-4.7l-8.5-6.2a4.1 4.1 0 0 1 2.4-7.5h10.6c1.8 0 3.4-1.1 4-2.8l3.2-10ZM194.8 69.1a4.1 4.1 0 0 1 8 0l3.2 10a4.1 4.1 0 0 0 4 3h10.5c4 0 5.7 5 2.4 7.4l-8.5 6.2c-1.5 1-2 3-1.5 4.6l3.2 10c1.3 3.9-3.1 7-6.3 4.7l-8.6-6.2c-1.4-1-3.4-1-4.9 0l-8.5 6.2a4.1 4.1 0 0 1-6.4-4.6l3.3-10c.6-1.8 0-3.6-1.5-4.7l-8.5-6.2A4.1 4.1 0 0 1 177 82h10.5c1.8 0 3.4-1.1 4-2.8l3.2-10Z" fill="#FFEBB7"/></g><g transform="translate(127.7 288.7) scale(.71856)"><g fill="#000" fill-opacity=".2"><rect x="33" y="38.5" width="12.9" height="12.9" rx="6.4"/><rect x="57.1" y="24" width="12.9" height="14.5" rx="6.4"/><rect x="76.4" y="38.5" width="12.9" height="12.9" rx="6.4"/><rect x="166.4" y="38.5" width="12.9" height="12.9" rx="6.4"/><rect x="190.5" y="24" width="12.9" height="14.5" rx="6.4"/><rect x="209.8" y="38.5" width="12.9" height="12.9" rx="6.4"/></g></g><g transform="translate(193 279.4) scale(.71856)"><path d="m24.6 39.3-.2 2.6a14.7 14.7 0 1 0 29-.4l-.1-2a14.7 14.7 0 0 1-28.7-.2Z" fill="#000" fill-opacity=".2"/></g><g transform="matrix(.52237 0 0 .52237 122.9 244.8)"><path d="M43.1 45C43 31.8 41.5 1 25.6 0 8 0 8.6 33.7 7.8 45c-.9 10-3.5 17.3 0 36.4C9.8 92.6 17.5 94 25.6 94c7.6 0 15.6-.9 17.5-9.6 4-18 .3-26.2 0-39.4Z" fill="#2c1b18"/></g><g transform="matrix(-.52237 0 0 .52237 315.7 244.8)"><path d="M43.1 45C43 31.8 41.5 1 25.6 0 8 0 8.6 33.7 7.8 45c-.9 10-3.5 17.3 0 36.4C9.8 92.6 17.5 94 25.6 94c7.6 0 15.6-.9 17.5-9.6 4-18 .3-26.2 0-39.4Z" fill="#2c1b18"/></g><g transform="matrix(.52237 0 0 .52237 108.7 145.6)"><g fill="#2c1b18"><path d="M132 85.2c2.7-21 39-24.4 57.5-22.6 18.5 1.8 21.7 3 44 10.7 22.4 7.8 70.2 33 59.3 59.4-8.7 21.2-32.1 12.4-42.8 5.3 2.5 11 5 34.9-4.8 41.8-9.6 6.9-21.8-6-26.8-13.4-2.6 6-12.9 18.5-32.3 19.8-19.4 1.4-15.4-24.8-11-38-8.5-.1-26.8-3.5-32-16.7-5.4-13.2 11.3-21.2 20.3-23.5-10.7.7-33.4-6.7-31.3-22.8Z"/><path d="M375 131c6.5 15.9 11.5 34.5 11.5 70-11 0-38.5 11-92.5-18-54.8-29.5-68.9-59.5-82-79-13 27-37 51.3-72.5 73.5C104 199.7 55.2 198.5 39 201c0-23.1 2-46 10.9-67.4A176 176 0 0 1 212 25a175 175 0 0 1 124 51.5c16.4 16.4 30.2 33.1 39 54.5Z"/></g></g></g></svg>