<svg xmlns="http://www.w3.org/2000/svg" viewBox="0 0 100 100" fill="none" shape-rendering="crispEdges"><metadata xmlns:rdf="http://www.w3.org/1999/02/22-rdf-syntax-ns#" xmlns:xsi="http://www.w3.org/2001/XMLSchema-instance" xmlns:dc="http://purl.org/dc/elements/1.1/" xmlns:dcterms="http://purl.org/dc/terms/"><rdf:RDF><rdf:Description><dc:title>Identicon</dc:title><dc:creator>DiceBear</dc:creator><dc:source xsi:type="dcterms:URI">https://www.dicebear.com</dc:source><dcterms:license xsi:type="dcterms:URI">https://creativecommons.org/publicdomain/zero/1.0/</dcterms:license><dc:rights>„Identicon” (https://www.dicebear.com) by „DiceBear”, licensed under „CC0 1.0” (https://creativecommons.org/publicdomain/zero/1.0/)</dc:rights></rdf:Description></rdf:RDF></metadata><mask id="viewboxMask"><rect width="100" height="100" rx="0" ry="0" x="0" y="0" fill="#fff" /></mask><g mask="url(#viewboxMask)"><path d="M0 0h20v20H0V0ZM80 0h20v20H80V0ZM60 0H40v20h20V0Z" fill="#fdd835"/><path d="M0 20h20v20H0V20ZM80 20h20v20H80V20ZM60 20H40v20h20V20Z" fill="#fdd835"/><path fill="#fdd835" d="M40 40h20v20H40z"/><path d="M20 60H0v20h20V60ZM100 60H80v20h20V60Z" fill="#fdd835"/><path d="M40 80H20v20h20V80ZM80 80H60v20h20V80Z" fill="#fdd835"/></g></svg>