<svg id="Layer_4" data-name="Layer 4" xmlns="http://www.w3.org/2000/svg" viewBox="0 0 318 358.14"><defs><style>.cls-1{stroke:#fff;stroke-miterlimit:10;stroke-width:15px;}.cls-2{font-size:104.16px;fill:#fff;font-family:ProximaNova-Bold, Proxima Nova;font-weight:700;}</style></defs><path class="cls-1" d="M113.92,99.82l21.37-25.14h-17L107.53,87.35c-4.21,5-6.63,12.44-6.63,20.5s2.42,15.56,6.63,20.5l9.23,10.87a13.73,13.73,0,0,1,0,16.08l-9.23,10.88c-4.21,4.94-6.63,12.42-6.63,20.5s2.42,15.54,6.63,20.48L116.76,218a13.73,13.73,0,0,1,0,16.08L107.53,245c-4.21,4.94-6.63,12.42-6.63,20.48s2.42,15.56,6.63,20.5l10.78,12.69h17l-21.37-25.14a13.73,13.73,0,0,1,0-16.08l9.25-10.86c4.2-5,6.62-12.43,6.62-20.5s-2.42-15.56-6.62-20.51l-9.25-10.86a13.73,13.73,0,0,1,0-16.08l9.25-10.88c4.2-4.93,6.62-12.41,6.62-20.49s-2.42-15.55-6.62-20.5l-9.25-10.86a13.73,13.73,0,0,1,0-16.08Z" transform="translate(-89 -67.18)"/><path class="cls-1" d="M207.18,186.68a12.55,12.55,0,0,1,2.6-8.05L219,167.77c4.21-5,6.62-12.43,6.62-20.5s-2.41-15.56-6.62-20.5a12.67,12.67,0,0,1-2.61-8v-44H206v44c0,8.08,2.42,15.55,6.63,20.5a13.73,13.73,0,0,1,0,16.08l-9.24,10.88c-4.21,4.94-6.63,12.42-6.63,20.5s2.42,15.54,6.63,20.48L212.62,218a13.73,13.73,0,0,1,0,16.08L203.38,245c-4.21,4.95-6.63,12.42-6.63,20.48s2.42,15.56,6.63,20.5l10.79,12.69h17l-21.36-25.14a13.73,13.73,0,0,1,0-16.08L219,246.58c4.21-5,6.62-12.43,6.62-20.5s-2.41-15.56-6.62-20.5l-9.24-10.87A12.55,12.55,0,0,1,207.18,186.68Z" transform="translate(-89 -67.18)"/><path class="cls-1" d="M321.51,226.08c0-8.08-2.42-15.54-6.63-20.5l-.1-.12a12.64,12.64,0,0,1-2.51-7.94V74.68H301.84V197.52c0,8.08,2.41,15.54,6.62,20.5l.11.12a12.66,12.66,0,0,1,2.51,7.94,12.48,12.48,0,0,1-2.61,8L299.24,245c-4.21,4.95-6.63,12.42-6.63,20.48S295,281,299.24,286L310,298.66h17l-21.36-25.14a13.69,13.69,0,0,1,0-16.08l9.24-10.87C319.09,241.63,321.51,234.15,321.51,226.08Z" transform="translate(-89 -67.18)"/><rect class="cls-1" x="299.46" y="7.5" width="10.42" height="223.98"/><text class="cls-2" transform="translate(0 336.27)">QUIRK</text></svg>