<svg xmlns="http://www.w3.org/2000/svg" viewBox="0 0 440 440" fill="none" shape-rendering="auto"><metadata xmlns:rdf="http://www.w3.org/1999/02/22-rdf-syntax-ns#" xmlns:xsi="http://www.w3.org/2001/XMLSchema-instance" xmlns:dc="http://purl.org/dc/elements/1.1/" xmlns:dcterms="http://purl.org/dc/terms/"><rdf:RDF><rdf:Description><dc:title>Face Generator</dc:title><dc:creator>The Visual Team</dc:creator><dc:source xsi:type="dcterms:URI">https://www.figma.com/community/file/986078800058673824</dc:source><dcterms:license xsi:type="dcterms:URI">https://creativecommons.org/licenses/by/4.0/</dcterms:license><dc:rights>Remix of „Face Generator” (https://www.figma.com/community/file/986078800058673824) by „The Visual Team”, licensed under „CC BY 4.0” (https://creativecommons.org/licenses/by/4.0/)</dc:rights></rdf:Description></rdf:RDF></metadata><mask id="viewboxMask"><rect width="440" height="440" rx="0" ry="0" x="0" y="0" fill="#fff" /></mask><g mask="url(#viewboxMask)"><g transform="matrix(.71048 0 0 .71048 24 2)"><path d="M41.6 296.4c-5.7 42.1 30.8 58.1 63.3 60-7.7 18.8 9.6 62 47.2 69.8 37.7 7.7 66.2-26.5 75.8-44.5 2.5 16.2 19.2 51 65.5 60.1 46.4 9.1 59.8-61.6 62.1-85.5 29 21 69 49.2 115.5 25.4 26.5-13.6 14-58.3 0-71 16.1-9.8 46.7-37.5 40-69.7-6.5-32.2-52.3-38.3-74.4-37.3 15.3-13 40-45.6 16.6-71.5-23.5-26-59.9-10.9-75.1 0 4.8-16.9 1.8-50.2-45.9-63.2-27.7-7.5-68 19.9-71.9 36.1-10.8-17-41.6-44.5-74.7-32.5-33 12-38.6 45.4-33.3 66.2-13.1-4-47.4-6.6-68.2 23.7-21 30.3 6.1 65.3 20.8 78.5-17.6 2-58.7 21.8-63.3 55.4Z" fill="#e8e1e1"/></g><g transform="translate(81.7 150.7) scale(.71856)"><circle cx="190.2" cy="167.2" r="121.2" fill="#c07f50"/><path fill="#c07f50" d="M69 164.5h242.4v191.2H69z"/><path d="M69 336h242v20H69v-20Z" fill="#000" fill-opacity=".2"/></g><g transform="translate(199.5 333.4) scale(.71856)"><path d="M59 15.6a31 31 0 1 1-62 0c0-17.1 13.8-4.1 31-4.1 17 0 31-13 31 4Z" fill="#F9F9F9"/></g><g transform="translate(280.7 235.4) scale(.71856)"><rect x="27" y="21" width="80" height="80" rx="21.3" fill="#c07f50"/><rect x="35.9" y="29.9" width="62.2" height="62.2" rx="12.4" fill="#000" fill-opacity=".2"/><rect x="28.8" y="44.1" width="17.8" height="35.5" rx="5.3" fill="#c07f50"/></g><g transform="matrix(-.71856 0 0 .71856 161.5 235.4)"><rect x="27" y="21" width="80" height="80" rx="21.3" fill="#c07f50"/><rect x="35.9" y="29.9" width="62.2" height="62.2" rx="12.4" fill="#000" fill-opacity=".2"/><rect x="28.8" y="44.1" width="17.8" height="35.5" rx="5.3" fill="#c07f50"/></g><g transform="translate(114.8 215.5) scale(.71856)"><path d="M120.9 100.5s-24.3 11.7-35.7 11.7c-11.5 0-31.2-11.7-31.2-11.7s22-11.7 33.5-11.7c11.4 0 33.4 11.7 33.4 11.7ZM235.3 100.5s-24.3 11.7-35.7 11.7c-11.5 0-31.2-11.7-31.2-11.7s22-11.7 33.5-11.7c11.4 0 33.4 11.7 33.4 11.7Z" fill="#fff"/><circle cx="89.1" cy="100.5" r="11.7" fill="#000"/><circle cx="200.2" cy="100.5" r="11.7" fill="#000"/><path fill="#403E3E" d="M49 52h76.9v20.1H49zM161.4 52h76.9v20.1h-76.9z"/></g><g transform="translate(127.7 288.7) scale(.71856)"></g><g transform="translate(193 279.4) scale(.71856)"><path d="M37.8 22c-7.1 9.5-20.2 29-16 31 4.3 2 18.6 2.5 25.3 2.5" stroke="#000" stroke-opacity=".5" stroke-width="4" stroke-linecap="round" stroke-linejoin="round"/></g><g transform="matrix(.52237 0 0 .52237 122.9 244.8)"><path d="M43.1 45C43 31.8 41.5 1 25.6 0 8 0 8.6 33.7 7.8 45c-.9 10-3.5 17.3 0 36.4C9.8 92.6 17.5 94 25.6 94c7.6 0 15.6-.9 17.5-9.6 4-18 .3-26.2 0-39.4Z" fill="#e8e1e1"/></g><g transform="matrix(-.52237 0 0 .52237 315.7 244.8)"><path d="M43.1 45C43 31.8 41.5 1 25.6 0 8 0 8.6 33.7 7.8 45c-.9 10-3.5 17.3 0 36.4C9.8 92.6 17.5 94 25.6 94c7.6 0 15.6-.9 17.5-9.6 4-18 .3-26.2 0-39.4Z" fill="#e8e1e1"/></g><g transform="matrix(.52237 0 0 .52237 108.7 145.6)"><g fill="#e8e1e1"><path d="M276 196.5a63.5 63.5 0 0 0-18.6-45c-5.9-5.8-12.9-61-20.6-64.2a63.5 63.5 0 0 0-48.6 0c-7.7 3.2-14.7 58.4-20.6 64.3a63.5 63.5 0 0 0-18.6 44.9h127Z"/><path d="M374 132c6.5 15.9 11.5 34.5 11.5 70-11 0-38.5 11-92.5-18-54.8-29.5-68.9-59.5-82-79-13 27-37 51.3-72.5 73.5C103 200.7 54.2 199.5 38 202c0-23.1 2-46 10.9-67.4A176 176 0 0 1 211 26a175 175 0 0 1 124 51.5c16.4 16.4 30.2 33.1 39 54.5Z"/></g></g></g></svg>