<svg xmlns="http://www.w3.org/2000/svg" viewBox="0 0 440 440" fill="none" shape-rendering="auto"><metadata xmlns:rdf="http://www.w3.org/1999/02/22-rdf-syntax-ns#" xmlns:xsi="http://www.w3.org/2001/XMLSchema-instance" xmlns:dc="http://purl.org/dc/elements/1.1/" xmlns:dcterms="http://purl.org/dc/terms/"><rdf:RDF><rdf:Description><dc:title>Face Generator</dc:title><dc:creator>The Visual Team</dc:creator><dc:source xsi:type="dcterms:URI">https://www.figma.com/community/file/986078800058673824</dc:source><dcterms:license xsi:type="dcterms:URI">https://creativecommons.org/licenses/by/4.0/</dcterms:license><dc:rights>Remix of „Face Generator” (https://www.figma.com/community/file/986078800058673824) by „The Visual Team”, licensed under „CC BY 4.0” (https://creativecommons.org/licenses/by/4.0/)</dc:rights></rdf:Description></rdf:RDF></metadata><mask id="viewboxMask"><rect width="440" height="440" rx="0" ry="0" x="0" y="0" fill="#fff" /></mask><g mask="url(#viewboxMask)"><g transform="matrix(.71048 0 0 .71048 24 2)"><g fill="#724133"><path d="M287.2 74H277C175.7 74 93.6 152.1 93.6 248.5S175.7 423 277 423h10.2c101.3 0 183.4-78.1 183.4-174.5S388.5 74 287.2 74Z"/><circle cx="282.1" cy="74.5" r="73.5"/></g></g><g transform="translate(81.7 150.7) scale(.71856)"><circle cx="190.2" cy="167.2" r="121.2" fill="#f8b788"/><path fill="#f8b788" d="M69 164.5h242.4v191.2H69z"/><path d="M69 336h242v20H69v-20Z" fill="#000" fill-opacity=".2"/></g><g transform="translate(199.5 333.4) scale(.71856)"><path fill-rule="evenodd" clip-rule="evenodd" d="M59.2 13 63.7 9a3.2 3.2 0 0 1 4 5l-4.1 3.5-2.3 2a49 49 0 0 1-33.7 11.8 51 51 0 0 1-38.3-17.8 3.2 3.2 0 0 1 5-4c4 5 16.3 15.4 33.3 15.4 11 0 17.7-2.3 22.7-5.2a48 48 0 0 0 9-6.9Z" fill="#000"/></g><g transform="translate(280.7 235.4) scale(.71856)"><path d="M70.9 16A40.4 40.4 0 0 0 31 47.3V109c24.3-3.3 67.7-24.5 74-45 6.2-20.6-1-48-34.1-48Z" fill="#f8b788"/><path d="M69.3 27.7c-19 0-27 15-28.6 22.5v44.1c17.5-2.3 48.5-17.5 53-32.2 4.5-14.7-.7-34.4-24.4-34.4Z" fill="#000" fill-opacity=".2"/><path d="M52.4 62.7c0-11.3-7.8-15-11.7-15.4v33.3a18.5 18.5 0 0 0 11.7-18Z" fill="#f8b788"/></g><g transform="matrix(-.71856 0 0 .71856 161.5 235.4)"><path d="M70.9 16A40.4 40.4 0 0 0 31 47.3V109c24.3-3.3 67.7-24.5 74-45 6.2-20.6-1-48-34.1-48Z" fill="#f8b788"/><path d="M69.3 27.7c-19 0-27 15-28.6 22.5v44.1c17.5-2.3 48.5-17.5 53-32.2 4.5-14.7-.7-34.4-24.4-34.4Z" fill="#000" fill-opacity=".2"/><path d="M52.4 62.7c0-11.3-7.8-15-11.7-15.4v33.3a18.5 18.5 0 0 0 11.7-18Z" fill="#f8b788"/></g><g transform="translate(114.8 215.5) scale(.71856)"><path d="M76 75.5a23.9 23.9 0 1 0 40.7 22.7L76.2 75.6ZM212.1 75.5a23.9 23.9 0 1 1-40.7 22.7L212 75.6Z" fill="#fff"/><path d="M74.5 52.5c7.5 5 40 26 49 31.5M213 53c-7.5 5-40 26-49 31.5" stroke="#000" stroke-width="3.7" stroke-linecap="round"/><path d="M86.1 81.2a12.8 12.8 0 1 0 20.6 11.5L86.1 81.2ZM202 81.2a12.8 12.8 0 1 1-20.5 11.5L202 81.2Z" fill="#000"/></g><g transform="translate(127.7 288.7) scale(.71856)"></g><g transform="translate(193 279.4) scale(.71856)"><path d="M37 14v27c-3.7.7-11 4-11 10.5 0 8.2 7.3 10.5 11 11.7" stroke="#000" stroke-opacity=".5" stroke-width="4" stroke-linecap="round" stroke-linejoin="round"/></g><g transform="matrix(.52237 0 0 .52237 122.9 244.8)"><path d="M43.1 45C43 31.8 41.5 1 25.6 0 8 0 8.6 33.7 7.8 45c-.9 10-3.5 17.3 0 36.4C9.8 92.6 17.5 94 25.6 94c7.6 0 15.6-.9 17.5-9.6 4-18 .3-26.2 0-39.4Z" fill="#724133"/></g><g transform="matrix(-.52237 0 0 .52237 315.7 244.8)"><path d="M43.1 45C43 31.8 41.5 1 25.6 0 8 0 8.6 33.7 7.8 45c-.9 10-3.5 17.3 0 36.4C9.8 92.6 17.5 94 25.6 94c7.6 0 15.6-.9 17.5-9.6 4-18 .3-26.2 0-39.4Z" fill="#724133"/></g><g transform="matrix(.52237 0 0 .52237 108.7 145.6)"><path d="M384.9 132.5a185.5 185.5 0 0 1 14.1 71H151.5l-24-47-24 47H28a185.5 185.5 0 0 1 356.9-71Z" fill="#724133"/></g></g></svg>