<svg xmlns="http://www.w3.org/2000/svg" viewBox="0 0 440 440" fill="none" shape-rendering="auto"><metadata xmlns:rdf="http://www.w3.org/1999/02/22-rdf-syntax-ns#" xmlns:xsi="http://www.w3.org/2001/XMLSchema-instance" xmlns:dc="http://purl.org/dc/elements/1.1/" xmlns:dcterms="http://purl.org/dc/terms/"><rdf:RDF><rdf:Description><dc:title>Face Generator</dc:title><dc:creator>The Visual Team</dc:creator><dc:source xsi:type="dcterms:URI">https://www.figma.com/community/file/986078800058673824</dc:source><dcterms:license xsi:type="dcterms:URI">https://creativecommons.org/licenses/by/4.0/</dcterms:license><dc:rights>Remix of „Face Generator” (https://www.figma.com/community/file/986078800058673824) by „The Visual Team”, licensed under „CC BY 4.0” (https://creativecommons.org/licenses/by/4.0/)</dc:rights></rdf:Description></rdf:RDF></metadata><mask id="viewboxMask"><rect width="440" height="440" rx="0" ry="0" x="0" y="0" fill="#fff" /></mask><g mask="url(#viewboxMask)"><g transform="matrix(.71048 0 0 .71048 24 2)"><g fill="#f59797"><path d="M76.6 230.4C90 111 191.9 51.4 284.6 55.2c142.2 5.7 195.1 107.5 201.5 175.2 5.4 58 63.2 117.2 23.9 174-64.6 93-259.2 81.5-333.9 41.1-76-41.1-108.9-132.9-99.5-215.1Z"/><path d="M516.6 454c28.3-77-7.2-159.8-35.7-198.5-15.1-21.7-73.5 114-181 149.5-107.3 35.6-105.3 128.6-33.8 155.5C337.6 587.4 488.4 531 516.6 454Z"/></g></g><g transform="translate(81.7 150.7) scale(.71856)"><circle cx="189.5" cy="199.5" r="133.5" fill="#89532c"/><path d="M323.3 192.3a133.8 133.8 0 0 1-267.1 0 133.7 133.7 0 1 0 267.1 0Z" fill="#000" fill-opacity=".2"/></g><g transform="translate(199.5 333.4) scale(.71856)"><path d="M59 19.4a31 31 0 1 1-62 0c0-17.2 13.8-4.2 31-4.2 17 0 31-13 31 4.2Z" fill="#DE8383"/><path fill-rule="evenodd" clip-rule="evenodd" d="M57.5 28.6H-1.7c-.9-3-1.3-6-1.3-9.2 0-11.2 5.9-9.6 14.8-7a59.5 59.5 0 0 0 16.1 2.8c6 0 11.5-1.5 16.2-2.9 9-2.5 14.8-4.1 14.8 7a31 31 0 0 1-1.4 9.3Z" fill="#F9F9F9"/></g><g transform="translate(280.7 235.4) scale(.71856)"><path d="M24 43.3C24 31.5 33.5 22 45.3 22h37.2c11.8 0 21.4 9.5 21.4 21.3v37.3c0 11.8-9.6 21.4-21.4 21.4H45.3A21.3 21.3 0 0 1 24 80.6V43.3Z" fill="#89532c"/><path d="M32.9 62A31 31 0 1 1 95 62a31 31 0 1 1-62.1 0Z" fill="#000" fill-opacity=".2"/></g><g transform="matrix(-.71856 0 0 .71856 161.5 235.4)"><path d="M24 43.3C24 31.5 33.5 22 45.3 22h37.2c11.8 0 21.4 9.5 21.4 21.3v37.3c0 11.8-9.6 21.4-21.4 21.4H45.3A21.3 21.3 0 0 1 24 80.6V43.3Z" fill="#89532c"/><path d="M32.9 62A31 31 0 1 1 95 62a31 31 0 1 1-62.1 0Z" fill="#000" fill-opacity=".2"/></g><g transform="translate(114.8 215.5) scale(.71856)"><g fill="#161616"><path d="M206.1 81.6a11.6 11.6 0 1 1-23.1 0 11.6 11.6 0 0 1 23.1 0Z"/><circle cx="93.6" cy="81.6" r="11.6"/></g></g><g transform="translate(127.7 288.7) scale(.71856)"><g fill="#FFC6C6"><rect x="21" y="16" width="43.4" height="43.4" rx="21.7"/><rect x="194" y="16" width="43.4" height="43.4" rx="21.7"/></g></g><g transform="translate(193 279.4) scale(.71856)"><path d="M17.2 34.5a17 17 0 0 0-.2 2.4v3.3C17 49.5 24.6 57 33.9 57H44C53.4 57 61 49.5 61 40V37c0-.8 0-1.6-.2-2.4a16.9 16.9 0 0 1-16.7 14.4H34c-8.5 0-15.6-6.2-16.7-14.4Z" fill="#000" fill-opacity=".2"/></g><g transform="matrix(.52237 0 0 .52237 122.9 244.8)"><path d="M26 0h-3A19 19 0 0 0 4 19v52a19 19 0 0 0 19 19h3a19 19 0 0 0 19-19V19A19 19 0 0 0 26 0Z" fill="#f59797"/></g><g transform="matrix(-.52237 0 0 .52237 315.7 244.8)"><path d="M26 0h-3A19 19 0 0 0 4 19v52a19 19 0 0 0 19 19h3a19 19 0 0 0 19-19V19A19 19 0 0 0 26 0Z" fill="#f59797"/></g><g transform="matrix(.52237 0 0 .52237 108.7 145.6)"><path d="M143.3 136.7c-3.5-17 23.9-29.6 38.9-33.1 15-3.6 17.8-3.6 37.4-3.6 19.6 0 63.8 6.8 62.4 30.3-1.2 18.8-21.9 18.3-32.1 15.7 4.9 8 13.2 25.9 7.5 33.8-5.7 8-18.8 1.2-24.6-3.2-.5 5.5-5.2 18-20 24.3C198 207 194 185.7 194 174c-6.6 2.3-21.9 4.6-29.6-4.2-7.7-8.9 3.3-19.6 9.7-24-8.2 3.5-28 3.9-30.7-9.2Z" fill="#f59797"/><path d="M374 131c6.5 15.9 11.5 34.5 11.5 70-11 0-38.5 11-92.5-18-54.8-29.5-68.9-59.5-82-79-13 27-37 51.3-72.5 73.5C103 199.7 54.2 198.5 38 201c0-23.1 2-46 10.9-67.4A176 176 0 0 1 211 25a175 175 0 0 1 124 51.5c16.4 16.4 30.2 33.1 39 54.5Z" fill="#f59797"/></g></g></svg>