<svg xmlns="http://www.w3.org/2000/svg" viewBox="0 0 210 210" fill="none" shape-rendering="auto"><metadata xmlns:rdf="http://www.w3.org/1999/02/22-rdf-syntax-ns#" xmlns:xsi="http://www.w3.org/2001/XMLSchema-instance" xmlns:dc="http://purl.org/dc/elements/1.1/" xmlns:dcterms="http://purl.org/dc/terms/"><rdf:RDF><rdf:Description><dc:title>Face Generator</dc:title><dc:creator>The Visual Team</dc:creator><dc:source xsi:type="dcterms:URI">https://www.figma.com/community/file/986078800058673824</dc:source><dcterms:license xsi:type="dcterms:URI">https://creativecommons.org/licenses/by/4.0/</dcterms:license><dc:rights>Remix of „Face Generator” (https://www.figma.com/community/file/986078800058673824) by „The Visual Team”, licensed under „CC BY 4.0” (https://creativecommons.org/licenses/by/4.0/)</dc:rights></rdf:Description></rdf:RDF></metadata><mask id="viewboxMask"><rect width="210" height="210" rx="0" ry="0" x="0" y="0" fill="#fff" /></mask><g mask="url(#viewboxMask)"><rect fill="#da9969" width="210" height="210" x="0" y="0" /><g transform="translate(86.8 138.9) scale(.71856)"><path fill-rule="evenodd" clip-rule="evenodd" d="M-1.7 8c1.5-.2 2.9.9 3 2.4.8 5.2 8.4 18.8 37.2 20.2a2.7 2.7 0 1 1-.2 5.4C7.9 34.5-3 19.7-4 11c-.2-1.4.9-2.8 2.3-3Z" fill="#000"/></g><g transform="translate(2 11) scale(.71856)"><path d="M120.9 100.5s-24.3 11.7-35.7 11.7c-11.5 0-31.2-11.7-31.2-11.7s22-11.7 33.5-11.7c11.4 0 33.4 11.7 33.4 11.7ZM235.3 100.5s-24.3 11.7-35.7 11.7c-11.5 0-31.2-11.7-31.2-11.7s22-11.7 33.5-11.7c11.4 0 33.4 11.7 33.4 11.7Z" fill="#fff"/><circle cx="89.1" cy="100.5" r="11.7" fill="#000"/><circle cx="200.2" cy="100.5" r="11.7" fill="#000"/><path fill="#403E3E" d="M49 52h76.9v20.1H49zM161.4 52h76.9v20.1h-76.9z"/></g><g transform="translate(15 89.2) scale(.71856)"><g fill="#000" fill-opacity=".2"><rect x="33" y="38.5" width="12.9" height="12.9" rx="6.4"/><rect x="57.1" y="24" width="12.9" height="14.5" rx="6.4"/><rect x="76.4" y="38.5" width="12.9" height="12.9" rx="6.4"/><rect x="166.4" y="38.5" width="12.9" height="12.9" rx="6.4"/><rect x="190.5" y="24" width="12.9" height="14.5" rx="6.4"/><rect x="209.8" y="38.5" width="12.9" height="12.9" rx="6.4"/></g></g><g transform="translate(80.3 79.8) scale(.71856)"><path d="M42.4 22c-.7 5.4-3 16.3-7.1 17-5 1-11-8-13.1-2-2 6 12 21.2 22.2 18.2" stroke="#000" stroke-opacity=".5" stroke-width="3.7" stroke-linecap="round" stroke-linejoin="round"/></g></g></svg>