<svg xmlns="http://www.w3.org/2000/svg" viewBox="0 0 440 440" fill="none" shape-rendering="auto"><metadata xmlns:rdf="http://www.w3.org/1999/02/22-rdf-syntax-ns#" xmlns:xsi="http://www.w3.org/2001/XMLSchema-instance" xmlns:dc="http://purl.org/dc/elements/1.1/" xmlns:dcterms="http://purl.org/dc/terms/"><rdf:RDF><rdf:Description><dc:title>Face Generator</dc:title><dc:creator>The Visual Team</dc:creator><dc:source xsi:type="dcterms:URI">https://www.figma.com/community/file/986078800058673824</dc:source><dcterms:license xsi:type="dcterms:URI">https://creativecommons.org/licenses/by/4.0/</dcterms:license><dc:rights>Remix of „Face Generator” (https://www.figma.com/community/file/986078800058673824) by „The Visual Team”, licensed under „CC BY 4.0” (https://creativecommons.org/licenses/by/4.0/)</dc:rights></rdf:Description></rdf:RDF></metadata><mask id="viewboxMask"><rect width="440" height="440" rx="0" ry="0" x="0" y="0" fill="#fff" /></mask><g mask="url(#viewboxMask)"><g transform="matrix(.71048 0 0 .71048 24 2)"><g fill="#4a312c"><path d="M78.2 224.1c13.5-116.4 115.4-174.6 208.3-171 142.2 5.6 195.2 105 201.6 171 5.4 56.6 63.3 114.4 23.8 169.8-64.5 90.7-415.8 36.9-442.3 17.9-70-50.2-.8-107.4 8.6-187.7Z"/><path d="M290.1 418.8c16.4-31-7-44-10.4-46.5-27.3-13-86-6-98.5 5.9-3.7 3.5-18 55-11.6 69 4.7 10 24.6 19 33.7 24.8-10.4-1.4-26.6-2-22 21.2 6 29.5 22.5 13.6 11.2 35.7-3.3 6.7-11.2 18.2-3.5 23.9 11.6 3.6 19.3 4 32.5 1 28-6.3 45.6-15.8 37.3-37.5-2.3-6-12-6-3.3-11 22.2-12.5 25.3-45.6 10.5-47.2-7.8-.8 7.8-8.3 24.1-39.3ZM139.7 409.9c28.2-17 14.7-42 13-46.2-16.7-27.6-69-56.4-85-53.6-4.8.9-41 36.8-42.1 52.6-.9 11.5 11.6 31 16.5 41.4-8.1-7.4-21.3-17.5-28.3 5.3-9 29 12.3 25-7.5 37.4-6 3.7-18 9-14.2 18.4 8 10 14.4 15 26.8 20.2 26.3 11.3 45.5 13.5 48.7-10.2 1-6.4-7.2-12.2 2.4-11.3 24.5 2.4 42.7-24.3 31-34.4-6.1-5.4 10.4-2.6 38.7-19.6Z"/><path d="M88.6 363c-8.5-35.3 16.9-39.8 20.7-41.1 29.3-3.4 84 23 93.2 38.7 2.8 4.6 4.6 59-4.8 70.1-6.8 8.2-28 10-38.1 12.5 10.3 2.2 26 7.1 16 27.8-12.4 26.3-24.5 5.6-19 30.5 1.8 7.6 6.7 21.3-2 24.2-12-.5-19.5-2.8-31.5-10C97.7 500.1 83 485.1 96 467c3.5-4.9 12.8-1.7 5.6-9.3-18.4-19.5-13.7-52.4.9-49 7.7 2-5.5-10.6-14-45.8ZM268.7 419.5c-17.9-29.7 4.7-44.4 8-47.1 26.7-15 85.5-12.5 98.6-1.5 3.9 3.3 20.8 53.7 15.1 68-4.1 10.5-23.5 20.8-32.3 27.3 10.3-2.1 26.4-4 23 19.6-4.5 29.8-21.7 15.2-9.4 36.4 3.7 6.4 12.2 17.4 4.8 23.6a54.7 54.7 0 0 1-32.5 3.4c-28.2-4.2-46.3-12.4-39-34.7 2-6 11.6-6.9 2.7-11.1-22.8-11-27.6-43.8-13-46.4 7.8-1.4-8.1-7.8-26-37.5ZM435 399.2c-28.7-14.7-16.5-41-15-45.3 15.3-29 65.7-62.3 81.8-60.8 4.8.5 42.3 33.6 44.2 49.4 1.4 11.5-10 32-14.5 43 7.7-8.1 20.3-19.3 28.3 3 10.2 28.3-11 26.1 9.1 37 6.1 3.2 18.2 7.5 15 17.3a62.2 62.2 0 0 1-25.7 22.5c-25.6 13.5-44.5 17.3-48.7-6.2-1.2-6.5 6.5-13-2.9-11.2-24.1 4.4-43.4-21-32.3-32.1 5.8-5.9-10.5-1.8-39.2-16.6Z"/><path d="M360.6 414c-25.5-20.1-8.8-43.5-6.5-47.5 20.4-25.6 76-48.5 91.6-43.9 4.6 1.4 35.4 41.1 34.4 57-.8 11.5-15.8 29.5-22.1 39.4 9-6.5 23.5-15 27.2 8.3 4.8 29.8-15.6 23.6 2.2 38 5.4 4.5 16.5 11 11.5 20a61.4 61.4 0 0 1-29.3 17.2c-27.6 8.2-47 8.4-46.8-15.6 0-6.5 8.8-11.3-.8-11.5-24.5-.3-38.8-29-25.8-37.7 6.8-4.6-10-3.7-35.6-23.8Z"/><path d="M299.6 430c-25.5-20.1-8.8-43.5-6.5-47.5 20.4-25.6 76-48.5 91.6-43.9 4.6 1.4 35.4 41.1 34.4 57-.8 11.5-15.8 29.5-22.1 39.4 9-6.5 23.5-15 27.2 8.3 4.8 29.8-15.6 23.6 2.2 38 5.4 4.5 16.5 11 11.5 20a61.4 61.4 0 0 1-29.3 17.2c-27.6 8.2-47 8.4-46.8-15.6 0-6.5 8.8-11.3-.8-11.5-24.5-.3-38.8-29-25.8-37.7 6.8-4.6-10-3.7-35.6-23.8Z"/><path d="M189.6 438c-25.5-20.1-8.8-43.5-6.5-47.5 20.4-25.6 76-48.5 91.6-43.9 4.6 1.4 35.4 41.1 34.4 57-.8 11.5-15.8 29.5-22.1 39.4 9-6.5 23.5-15 27.2 8.3 4.8 29.8-15.6 23.6 2.2 38 5.4 4.5 16.5 11 11.5 20a61.4 61.4 0 0 1-29.3 17.2c-27.6 8.2-47 8.4-46.8-15.6 0-6.5 8.8-11.3-.8-11.5-24.5-.3-38.8-29-25.8-37.7 6.8-4.6-10-3.7-35.6-23.8Z"/><path d="M72.6 414c-25.5-20.1-8.8-43.5-6.5-47.5 20.4-25.6 76-48.5 91.6-43.9 4.6 1.4 35.4 41.1 34.4 57-.8 11.5-15.8 29.5-22.1 39.4 9-6.5 23.5-15 27.2 8.3 4.8 29.8-15.6 23.6 2.2 38 5.4 4.5 16.5 11 11.5 20a61.4 61.4 0 0 1-29.3 17.2c-27.6 8.2-47 8.4-46.8-15.6 0-6.5 8.8-11.3-.8-11.5-24.5-.3-38.8-29-25.8-37.7 6.8-4.6-10-3.7-35.6-23.8Z"/></g></g><g transform="translate(81.7 150.7) scale(.71856)"><path d="M293.1 88.7C258 38.7 171.6 25.4 120.3 58 69 91 57.5 145.2 65 204.8c3.1 24.1 7 43 9 63.5 6.6 63.2 93 94.7 118.6 94.7 40.4 0 108.3-44.3 116.8-94.7 7.7-46 7-42.4 7.5-63.5.6-21 11.3-66.1-23.9-116.1Z" fill="#da9969"/><path d="M76.2 279.7c22.6 47.6 92.6 71.3 115.6 71.3 39 0 102.8-38.9 118-85.2l-.5 2.8C301 319 233 363.5 192.6 363.5c-24 0-101.7-27.9-116.4-83.8Z" fill="#000" fill-opacity=".2"/></g><g transform="translate(199.5 333.4) scale(.71856)"><path d="M82 34.6c0 16.9-24.2 4-54.2 4-29.9 0-54.2 12.9-54.2-4C-26.4 17.6-2 4 27.8 4c30 0 54.3 13.7 54.3 30.6Z" fill="#DE8383"/><path fill-rule="evenodd" clip-rule="evenodd" d="M69.2 15.1c-9.8 3.2-24.8 5.3-41.7 5.3-16.5 0-31.2-2-41-5.1A71 71 0 0 1 28 3.5C44.7 3.5 59.6 8 69.2 15Z" fill="#F9F9F9"/></g><g transform="translate(280.7 235.4) scale(.71856)"><rect x="21" y="21" width="88.1" height="88.1" rx="44.1" fill="#da9969"/><path d="M87 43 42.5 84.5" stroke="#000" stroke-opacity=".2" stroke-width="5" stroke-linecap="round" stroke-linejoin="round"/></g><g transform="matrix(-.71856 0 0 .71856 161.5 235.4)"><rect x="21" y="21" width="88.1" height="88.1" rx="44.1" fill="#da9969"/><path d="M87 43 42.5 84.5" stroke="#000" stroke-opacity=".2" stroke-width="5" stroke-linecap="round" stroke-linejoin="round"/></g><g transform="translate(114.8 215.5) scale(.71856)"><path d="M51 66.6c6.9-2.2 17.4-6.6 38-6.6 17.6 0 32.3 4.9 35 6.6M164 66.6c6.9-2.2 17.4-6.6 38-6.6 17.6 0 32.3 4.9 35 6.6" stroke="#000" stroke-width="3.7" stroke-linecap="round"/><path d="M120.6 94.8s-24 11.6-35.4 11.6c-11.4 0-30.9-11.6-30.9-11.6s21.8-11.6 33.2-11.6c11.3 0 33.1 11.6 33.1 11.6ZM233.6 94.8s-24 11.6-35.4 11.6c-11.4 0-30.9-11.6-30.9-11.6s21.8-11.6 33.2-11.6c11.3 0 33.1 11.6 33.1 11.6Z" fill="#fff"/><circle cx="89.1" cy="94.8" r="11.6" fill="#000"/><circle cx="198.8" cy="94.8" r="11.6" fill="#000"/></g><g transform="translate(127.7 288.7) scale(.71856)"><g fill="#FFC6C6"><rect x="11" y="16" width="56.3" height="43.4" rx="21.7"/><rect x="191" y="16" width="56.3" height="43.4" rx="21.7"/></g></g><g transform="translate(193 279.4) scale(.71856)"><path d="m24.6 39.3-.2 2.6a14.7 14.7 0 1 0 29-.4l-.1-2a14.7 14.7 0 0 1-28.7-.2Z" fill="#000" fill-opacity=".2"/></g><g transform="matrix(.52237 0 0 .52237 122.9 244.8)"><path d="M10 94V8h32l-3.7 76.9L10 94Z" fill="#4a312c"/></g><g transform="matrix(-.52237 0 0 .52237 315.7 244.8)"><path d="M10 94V8h32l-3.7 76.9L10 94Z" fill="#4a312c"/></g><g transform="matrix(.52237 0 0 .52237 108.7 145.6)"><path d="M374 130c6.5 15.9 11.5 34.5 11.5 70-11 0-73.7 6-114.5-10s-46.9-28.5-60-48c-13 27-37 38-73.5 48s-83.3 7.5-99.5 10c0-23.1 2-46 10.9-67.4A176 176 0 0 1 211 24a175 175 0 0 1 124 51.5c16.4 16.4 30.2 33.1 39 54.5Z" fill="#4a312c"/></g></g></svg>