<svg xmlns="http://www.w3.org/2000/svg" viewBox="0 0 440 440" fill="none" shape-rendering="auto"><metadata xmlns:rdf="http://www.w3.org/1999/02/22-rdf-syntax-ns#" xmlns:xsi="http://www.w3.org/2001/XMLSchema-instance" xmlns:dc="http://purl.org/dc/elements/1.1/" xmlns:dcterms="http://purl.org/dc/terms/"><rdf:RDF><rdf:Description><dc:title>Face Generator</dc:title><dc:creator>The Visual Team</dc:creator><dc:source xsi:type="dcterms:URI">https://www.figma.com/community/file/986078800058673824</dc:source><dcterms:license xsi:type="dcterms:URI">https://creativecommons.org/licenses/by/4.0/</dcterms:license><dc:rights>Remix of „Face Generator” (https://www.figma.com/community/file/986078800058673824) by „The Visual Team”, licensed under „CC BY 4.0” (https://creativecommons.org/licenses/by/4.0/)</dc:rights></rdf:Description></rdf:RDF></metadata><mask id="viewboxMask"><rect width="440" height="440" rx="0" ry="0" x="0" y="0" fill="#fff" /></mask><g mask="url(#viewboxMask)"><g transform="matrix(.71048 0 0 .71048 24 2)"><path d="M457 309c-2.8-64.3-16.5-214.8-174-219.6-173.7 0-167.4 164.2-176.7 219.7-8.1 49.1-34.5 84.3 0 177.5 20.4 54.8 97 103.2 176.6 103.1 75.7 0 154.6-46 174-88.7 40-87.7 2.8-127.6 0-192Z" fill="#724133"/></g><g transform="translate(81.7 150.7) scale(.71856)"><path d="M191 39c103.2 3 112.2 97.8 114 138.3.5 12.7 3.3 23.8 6 34.9 3.3 13 6.5 26 6 41 .5 14.7-2.3 31.1-12 51.8-12.8 27-64.4 56-114 56-52.2 0-102.3-30.5-115.6-65.1A142.3 142.3 0 0 1 64 239.5c-.6-16.8 3-29.7 6.5-42.3 1.8-6.5 3.6-13 4.8-20 .7-4.1 1.3-9.3 2-15.3C82 119 91 39 191 39Z" fill="#c07f50"/><path d="M64.5 233c-1.6 16.1.3 35.5 10.9 62.9C88.7 330.5 138.8 361 191 361c49.6 0 101.2-29 114-56a105.2 105.2 0 0 0 11.3-60.2 118.6 118.6 0 0 1-11.5 38.6c-12.8 27-64.4 56-114 56-52.1 0-102.3-30.6-115.6-65.1A164.3 164.3 0 0 1 64.5 233Z" fill="#000" fill-opacity=".2"/></g><g transform="translate(199.5 333.4) scale(.71856)"><path d="M59.8 28.9a31 31 0 1 1-62 0 31 31 0 0 1 62 0Z" fill="#DE8383"/><path fill-rule="evenodd" clip-rule="evenodd" d="M5.6 49.5a31 31 0 0 1 47.9-2 31 31 0 0 1-47.9 2Z" fill="#C06E6E"/><path fill-rule="evenodd" clip-rule="evenodd" d="M57.4 16.4H.4a31 31 0 0 1 57 0Z" fill="#F9F9F9"/></g><g transform="translate(280.7 235.4) scale(.71856)"><rect x="21" y="21" width="88.1" height="88.1" rx="44.1" fill="#c07f50"/><path d="M87 43 42.5 84.5" stroke="#000" stroke-opacity=".2" stroke-width="5" stroke-linecap="round" stroke-linejoin="round"/></g><g transform="matrix(-.71856 0 0 .71856 161.5 235.4)"><rect x="21" y="21" width="88.1" height="88.1" rx="44.1" fill="#c07f50"/><path d="M87 43 42.5 84.5" stroke="#000" stroke-opacity=".2" stroke-width="5" stroke-linecap="round" stroke-linejoin="round"/></g><g transform="translate(114.8 215.5) scale(.71856)"><g stroke="#000" stroke-linecap="round"><path d="M222 49c-4.2 3.4-10.8 10.1-23.7 10.1a30 30 0 0 1-21.8-10" stroke-width="8.3"/><path d="M222 89c-4.2 3.4-10.8 10.1-23.7 10.1a30 30 0 0 1-21.8-10" stroke-width="4.1"/><path d="M110.6 49c-4.3 3.4-11 10.1-23.8 10.1A30 30 0 0 1 65 49" stroke-width="8.3"/><path d="M110.6 89c-4.3 3.4-11 10.1-23.8 10.1a30 30 0 0 1-21.8-10" stroke-width="4.1"/></g></g><g transform="translate(127.7 288.7) scale(.71856)"><g fill="#000" fill-opacity=".4"><rect x="33" y="38.5" width="12.9" height="12.9" rx="6.4"/><rect x="57.1" y="24" width="12.9" height="14.5" rx="6.4"/><rect x="76.4" y="38.5" width="12.9" height="12.9" rx="6.4"/><rect x="166.4" y="38.5" width="12.9" height="12.9" rx="6.4"/><rect x="190.5" y="24" width="12.9" height="14.5" rx="6.4"/><rect x="209.8" y="38.5" width="12.9" height="12.9" rx="6.4"/></g></g><g transform="translate(193 279.4) scale(.71856)"><path d="M16.6 46.2A11.3 11.3 0 0 0 28.3 61 11.3 11.3 0 0 0 50 61h1a11.3 11.3 0 0 0 10.7-15A11.3 11.3 0 0 1 50 53.9a11.3 11.3 0 0 1-21.8 0h-1c-5 0-9.2-3.1-10.7-7.6Z" fill="#000" fill-opacity=".2"/></g><g transform="matrix(.52237 0 0 .52237 122.9 244.8)"><path d="M26 0h-3A19 19 0 0 0 4 19v52a19 19 0 0 0 19 19h3a19 19 0 0 0 19-19V19A19 19 0 0 0 26 0Z" fill="#724133"/></g><g transform="matrix(-.52237 0 0 .52237 315.7 244.8)"><path d="M26 0h-3A19 19 0 0 0 4 19v52a19 19 0 0 0 19 19h3a19 19 0 0 0 19-19V19A19 19 0 0 0 26 0Z" fill="#724133"/></g><g transform="matrix(.52237 0 0 .52237 108.7 145.6)"><path d="M384.9 132.5a185.5 185.5 0 0 1 14.1 71H151.5l-24-47-24 47H28a185.5 185.5 0 0 1 356.9-71Z" fill="#724133"/></g></g></svg>