<svg xmlns="http://www.w3.org/2000/svg" viewBox="0 0 210 210" fill="none" shape-rendering="auto"><metadata xmlns:rdf="http://www.w3.org/1999/02/22-rdf-syntax-ns#" xmlns:xsi="http://www.w3.org/2001/XMLSchema-instance" xmlns:dc="http://purl.org/dc/elements/1.1/" xmlns:dcterms="http://purl.org/dc/terms/"><rdf:RDF><rdf:Description><dc:title>Face Generator</dc:title><dc:creator>The Visual Team</dc:creator><dc:source xsi:type="dcterms:URI">https://www.figma.com/community/file/986078800058673824</dc:source><dcterms:license xsi:type="dcterms:URI">https://creativecommons.org/licenses/by/4.0/</dcterms:license><dc:rights>Remix of „Face Generator” (https://www.figma.com/community/file/986078800058673824) by „The Visual Team”, licensed under „CC BY 4.0” (https://creativecommons.org/licenses/by/4.0/)</dc:rights></rdf:Description></rdf:RDF></metadata><mask id="viewboxMask"><rect width="210" height="210" rx="0" ry="0" x="0" y="0" fill="#fff" /></mask><g mask="url(#viewboxMask)"><rect fill="#f8b788" width="210" height="210" x="0" y="0" /><g transform="translate(86.8 138.9) scale(.71856)"><path d="M82 34.6c0 16.9-24.2 4-54.2 4-29.9 0-54.2 12.9-54.2-4C-26.4 17.6-2 4 27.8 4c30 0 54.3 13.7 54.3 30.6Z" fill="#DE8383"/><path fill-rule="evenodd" clip-rule="evenodd" d="M69.2 15.1c-9.8 3.2-24.8 5.3-41.7 5.3-16.5 0-31.2-2-41-5.1A71 71 0 0 1 28 3.5C44.7 3.5 59.6 8 69.2 15Z" fill="#F9F9F9"/></g><g transform="translate(2 11) scale(.71856)"><path d="M183.1 52.7c3.7-3 9.4-8.7 20.4-8.7 9.4 0 17.3 6.4 18.7 8.7M104.3 52.7C100.6 49.7 95 44 84 44c-9.4 0-17.2 6.4-18.7 8.7" stroke="#000" stroke-width="3.7" stroke-linecap="round"/><circle cx="87.2" cy="92" r="28.2" fill="#fff"/><circle cx="200.8" cy="92" r="28.2" fill="#fff"/><circle cx="87.2" cy="92" r="15.2" fill="#000"/><circle cx="200.8" cy="92" r="15.2" fill="#000"/><path d="M228.3 86.6h-56a28.2 28.2 0 0 1 56 0ZM115 86.6H59a28.2 28.2 0 0 1 56 0Z" fill="#CD9166"/></g><g transform="translate(15 89.2) scale(.71856)"><g fill="#F88888"><rect x="11" y="16" width="56.3" height="43.4" rx="21.7"/><rect x="191" y="16" width="56.3" height="43.4" rx="21.7"/></g></g><g transform="translate(80.3 79.8) scale(.71856)"><path d="M42.4 22c-.7 5.4-3 16.3-7.1 17-5 1-11-8-13.1-2-2 6 12 21.2 22.2 18.2" stroke="#000" stroke-opacity=".5" stroke-width="3.7" stroke-linecap="round" stroke-linejoin="round"/></g></g></svg>