<svg xmlns="http://www.w3.org/2000/svg" viewBox="0 0 440 440" fill="none" shape-rendering="auto"><metadata xmlns:rdf="http://www.w3.org/1999/02/22-rdf-syntax-ns#" xmlns:xsi="http://www.w3.org/2001/XMLSchema-instance" xmlns:dc="http://purl.org/dc/elements/1.1/" xmlns:dcterms="http://purl.org/dc/terms/"><rdf:RDF><rdf:Description><dc:title>Face Generator</dc:title><dc:creator>The Visual Team</dc:creator><dc:source xsi:type="dcterms:URI">https://www.figma.com/community/file/986078800058673824</dc:source><dcterms:license xsi:type="dcterms:URI">https://creativecommons.org/licenses/by/4.0/</dcterms:license><dc:rights>Remix of „Face Generator” (https://www.figma.com/community/file/986078800058673824) by „The Visual Team”, licensed under „CC BY 4.0” (https://creativecommons.org/licenses/by/4.0/)</dc:rights></rdf:Description></rdf:RDF></metadata><mask id="viewboxMask"><rect width="440" height="440" rx="0" ry="0" x="0" y="0" fill="#fff" /></mask><g mask="url(#viewboxMask)"><g transform="matrix(.71048 0 0 .71048 24 2)"><g fill="#a55728"><path d="M78.2 224.1c13.5-116.4 115.4-174.6 208.3-171 142.2 5.6 195.2 105 201.6 171 5.4 56.6 63.3 114.4 23.8 169.8-64.5 90.7-415.8 36.9-442.3 17.9-70-50.2-.8-107.4 8.6-187.7Z"/><path d="M290.1 418.8c16.4-31-7-44-10.4-46.5-27.3-13-86-6-98.5 5.9-3.7 3.5-18 55-11.6 69 4.7 10 24.6 19 33.7 24.8-10.4-1.4-26.6-2-22 21.2 6 29.5 22.5 13.6 11.2 35.7-3.3 6.7-11.2 18.2-3.5 23.9 11.6 3.6 19.3 4 32.5 1 28-6.3 45.6-15.8 37.3-37.5-2.3-6-12-6-3.3-11 22.2-12.5 25.3-45.6 10.5-47.2-7.8-.8 7.8-8.3 24.1-39.3ZM139.7 409.9c28.2-17 14.7-42 13-46.2-16.7-27.6-69-56.4-85-53.6-4.8.9-41 36.8-42.1 52.6-.9 11.5 11.6 31 16.5 41.4-8.1-7.4-21.3-17.5-28.3 5.3-9 29 12.3 25-7.5 37.4-6 3.7-18 9-14.2 18.4 8 10 14.4 15 26.8 20.2 26.3 11.3 45.5 13.5 48.7-10.2 1-6.4-7.2-12.2 2.4-11.3 24.5 2.4 42.7-24.3 31-34.4-6.1-5.4 10.4-2.6 38.7-19.6Z"/><path d="M88.6 363c-8.5-35.3 16.9-39.8 20.7-41.1 29.3-3.4 84 23 93.2 38.7 2.8 4.6 4.6 59-4.8 70.1-6.8 8.2-28 10-38.1 12.5 10.3 2.2 26 7.1 16 27.8-12.4 26.3-24.5 5.6-19 30.5 1.8 7.6 6.7 21.3-2 24.2-12-.5-19.5-2.8-31.5-10C97.7 500.1 83 485.1 96 467c3.5-4.9 12.8-1.7 5.6-9.3-18.4-19.5-13.7-52.4.9-49 7.7 2-5.5-10.6-14-45.8ZM268.7 419.5c-17.9-29.7 4.7-44.4 8-47.1 26.7-15 85.5-12.5 98.6-1.5 3.9 3.3 20.8 53.7 15.1 68-4.1 10.5-23.5 20.8-32.3 27.3 10.3-2.1 26.4-4 23 19.6-4.5 29.8-21.7 15.2-9.4 36.4 3.7 6.4 12.2 17.4 4.8 23.6a54.7 54.7 0 0 1-32.5 3.4c-28.2-4.2-46.3-12.4-39-34.7 2-6 11.6-6.9 2.7-11.1-22.8-11-27.6-43.8-13-46.4 7.8-1.4-8.1-7.8-26-37.5ZM435 399.2c-28.7-14.7-16.5-41-15-45.3 15.3-29 65.7-62.3 81.8-60.8 4.8.5 42.3 33.6 44.2 49.4 1.4 11.5-10 32-14.5 43 7.7-8.1 20.3-19.3 28.3 3 10.2 28.3-11 26.1 9.1 37 6.1 3.2 18.2 7.5 15 17.3a62.2 62.2 0 0 1-25.7 22.5c-25.6 13.5-44.5 17.3-48.7-6.2-1.2-6.5 6.5-13-2.9-11.2-24.1 4.4-43.4-21-32.3-32.1 5.8-5.9-10.5-1.8-39.2-16.6Z"/><path d="M360.6 414c-25.5-20.1-8.8-43.5-6.5-47.5 20.4-25.6 76-48.5 91.6-43.9 4.6 1.4 35.4 41.1 34.4 57-.8 11.5-15.8 29.5-22.1 39.4 9-6.5 23.5-15 27.2 8.3 4.8 29.8-15.6 23.6 2.2 38 5.4 4.5 16.5 11 11.5 20a61.4 61.4 0 0 1-29.3 17.2c-27.6 8.2-47 8.4-46.8-15.6 0-6.5 8.8-11.3-.8-11.5-24.5-.3-38.8-29-25.8-37.7 6.8-4.6-10-3.7-35.6-23.8Z"/><path d="M299.6 430c-25.5-20.1-8.8-43.5-6.5-47.5 20.4-25.6 76-48.5 91.6-43.9 4.6 1.4 35.4 41.1 34.4 57-.8 11.5-15.8 29.5-22.1 39.4 9-6.5 23.5-15 27.2 8.3 4.8 29.8-15.6 23.6 2.2 38 5.4 4.5 16.5 11 11.5 20a61.4 61.4 0 0 1-29.3 17.2c-27.6 8.2-47 8.4-46.8-15.6 0-6.5 8.8-11.3-.8-11.5-24.5-.3-38.8-29-25.8-37.7 6.8-4.6-10-3.7-35.6-23.8Z"/><path d="M189.6 438c-25.5-20.1-8.8-43.5-6.5-47.5 20.4-25.6 76-48.5 91.6-43.9 4.6 1.4 35.4 41.1 34.4 57-.8 11.5-15.8 29.5-22.1 39.4 9-6.5 23.5-15 27.2 8.3 4.8 29.8-15.6 23.6 2.2 38 5.4 4.5 16.5 11 11.5 20a61.4 61.4 0 0 1-29.3 17.2c-27.6 8.2-47 8.4-46.8-15.6 0-6.5 8.8-11.3-.8-11.5-24.5-.3-38.8-29-25.8-37.7 6.8-4.6-10-3.7-35.6-23.8Z"/><path d="M72.6 414c-25.5-20.1-8.8-43.5-6.5-47.5 20.4-25.6 76-48.5 91.6-43.9 4.6 1.4 35.4 41.1 34.4 57-.8 11.5-15.8 29.5-22.1 39.4 9-6.5 23.5-15 27.2 8.3 4.8 29.8-15.6 23.6 2.2 38 5.4 4.5 16.5 11 11.5 20a61.4 61.4 0 0 1-29.3 17.2c-27.6 8.2-47 8.4-46.8-15.6 0-6.5 8.8-11.3-.8-11.5-24.5-.3-38.8-29-25.8-37.7 6.8-4.6-10-3.7-35.6-23.8Z"/></g></g><g transform="translate(81.7 150.7) scale(.71856)"><path d="M190.5 37C120.6 37 64 102.1 64 182.5a170.3 170.3 0 0 0 0 3C64 265.8 120.6 361 190.5 361S317 265.8 317 185.5a182.4 182.4 0 0 0 0-3C317 102 260.4 37 190.5 37Z" fill="#89532c"/><path d="M64 181.5v4C64 265.8 120.6 361 190.5 361S317 265.8 317 185.5v-4C315 261 259.2 353 190.5 353S65.9 261 64 181.5Z" fill="#000" fill-opacity=".2"/></g><g transform="translate(199.5 333.4) scale(.71856)"><path d="M60.9 25c0 17-14.8 30.6-33 30.6C9.5 55.6-5.3 42-5.3 25.1c0-16.9 4.4-14.9 33-14.9 26.5 0 33-2 33 14.9Z" fill="#F9F9F9"/></g><g transform="translate(280.7 235.4) scale(.71856)"><path d="M70.9 16A40.4 40.4 0 0 0 31 47.3V109c24.3-3.3 67.7-24.5 74-45 6.2-20.6-1-48-34.1-48Z" fill="#89532c"/><path d="M69.3 27.7c-19 0-27 15-28.6 22.5v44.1c17.5-2.3 48.5-17.5 53-32.2 4.5-14.7-.7-34.4-24.4-34.4Z" fill="#000" fill-opacity=".2"/><path d="M52.4 62.7c0-11.3-7.8-15-11.7-15.4v33.3a18.5 18.5 0 0 0 11.7-18Z" fill="#89532c"/></g><g transform="matrix(-.71856 0 0 .71856 161.5 235.4)"><path d="M70.9 16A40.4 40.4 0 0 0 31 47.3V109c24.3-3.3 67.7-24.5 74-45 6.2-20.6-1-48-34.1-48Z" fill="#89532c"/><path d="M69.3 27.7c-19 0-27 15-28.6 22.5v44.1c17.5-2.3 48.5-17.5 53-32.2 4.5-14.7-.7-34.4-24.4-34.4Z" fill="#000" fill-opacity=".2"/><path d="M52.4 62.7c0-11.3-7.8-15-11.7-15.4v33.3a18.5 18.5 0 0 0 11.7-18Z" fill="#89532c"/></g><g transform="translate(114.8 215.5) scale(.71856)"><circle cx="196.2" cy="81.6" r="11.6" fill="#161616"/><circle cx="96.2" cy="81.6" r="11.6" fill="#161616"/><path d="M180 70c.9 2.5 4 7.8 9.2 9.2M80 70c.9 2.5 4 7.8 9.2 9.2" stroke="#000" stroke-width="4.6" stroke-linecap="round" stroke-linejoin="round"/></g><g transform="translate(127.7 288.7) scale(.71856)"><g fill="#000" fill-opacity=".4"><rect x="33" y="38.5" width="12.9" height="12.9" rx="6.4"/><rect x="57.1" y="24" width="12.9" height="14.5" rx="6.4"/><rect x="76.4" y="38.5" width="12.9" height="12.9" rx="6.4"/><rect x="166.4" y="38.5" width="12.9" height="12.9" rx="6.4"/><rect x="190.5" y="24" width="12.9" height="14.5" rx="6.4"/><rect x="209.8" y="38.5" width="12.9" height="12.9" rx="6.4"/></g></g><g transform="translate(193 279.4) scale(.71856)"><path d="M37 14v27c-3.7.7-11 4-11 10.5 0 8.2 7.3 10.5 11 11.7" stroke="#000" stroke-opacity=".5" stroke-width="4" stroke-linecap="round" stroke-linejoin="round"/></g><g transform="matrix(.52237 0 0 .52237 122.9 244.8)"><path d="M43.1 45C43 31.8 41.5 1 25.6 0 8 0 8.6 33.7 7.8 45c-.9 10-3.5 17.3 0 36.4C9.8 92.6 17.5 94 25.6 94c7.6 0 15.6-.9 17.5-9.6 4-18 .3-26.2 0-39.4Z" fill="#a55728"/></g><g transform="matrix(-.52237 0 0 .52237 315.7 244.8)"><path d="M43.1 45C43 31.8 41.5 1 25.6 0 8 0 8.6 33.7 7.8 45c-.9 10-3.5 17.3 0 36.4C9.8 92.6 17.5 94 25.6 94c7.6 0 15.6-.9 17.5-9.6 4-18 .3-26.2 0-39.4Z" fill="#a55728"/></g><g transform="matrix(.52237 0 0 .52237 108.7 145.6)"><g fill="#a55728"><path d="M132 85.2c2.7-21 39-24.4 57.5-22.6 18.5 1.8 21.7 3 44 10.7 22.4 7.8 70.2 33 59.3 59.4-8.7 21.2-32.1 12.4-42.8 5.3 2.5 11 5 34.9-4.8 41.8-9.6 6.9-21.8-6-26.8-13.4-2.6 6-12.9 18.5-32.3 19.8-19.4 1.4-15.4-24.8-11-38-8.5-.1-26.8-3.5-32-16.7-5.4-13.2 11.3-21.2 20.3-23.5-10.7.7-33.4-6.7-31.3-22.8Z"/><path d="M375 131c6.5 15.9 11.5 34.5 11.5 70-11 0-38.5 11-92.5-18-54.8-29.5-68.9-59.5-82-79-13 27-37 51.3-72.5 73.5C104 199.7 55.2 198.5 39 201c0-23.1 2-46 10.9-67.4A176 176 0 0 1 212 25a175 175 0 0 1 124 51.5c16.4 16.4 30.2 33.1 39 54.5Z"/></g></g></g></svg>