<svg xmlns="http://www.w3.org/2000/svg" viewBox="0 0 440 440" fill="none" shape-rendering="auto"><metadata xmlns:rdf="http://www.w3.org/1999/02/22-rdf-syntax-ns#" xmlns:xsi="http://www.w3.org/2001/XMLSchema-instance" xmlns:dc="http://purl.org/dc/elements/1.1/" xmlns:dcterms="http://purl.org/dc/terms/"><rdf:RDF><rdf:Description><dc:title>Face Generator</dc:title><dc:creator>The Visual Team</dc:creator><dc:source xsi:type="dcterms:URI">https://www.figma.com/community/file/986078800058673824</dc:source><dcterms:license xsi:type="dcterms:URI">https://creativecommons.org/licenses/by/4.0/</dcterms:license><dc:rights>Remix of „Face Generator” (https://www.figma.com/community/file/986078800058673824) by „The Visual Team”, licensed under „CC BY 4.0” (https://creativecommons.org/licenses/by/4.0/)</dc:rights></rdf:Description></rdf:RDF></metadata><mask id="viewboxMask"><rect width="440" height="440" rx="0" ry="0" x="0" y="0" fill="#fff" /></mask><g mask="url(#viewboxMask)"><g transform="matrix(.71048 0 0 .71048 24 2)"><path d="M73 341.5c-51 49 19.3 74.7 49 109 21 29.9 84.5 36.5 127 20 52 13.1 48.5 44.3 104.5 16.5 90 5 76.7-55.4 98.7-67.5 30.8-17 62.8-56 30.8-89 0-41-1.5-79.4-30.8-106.3-13-59.4-24-77.1-82.5-77.1-39-33.8-66.5-3.7-90.5-25-69.6-61.7-118.9 35.4-135.2 65.3-22.5-15.5-61.3 18.2-55.3 61-43 26.6 2.9 75.2-15.7 93.1Z" fill="#4a312c"/></g><g transform="translate(81.7 150.7) scale(.71856)"><path d="M310 123.1H72.8v167.3c0 31 53 80.6 118.6 80.6 65.5 0 118.6-49.5 118.6-80.6V123Z" fill="#a66637"/><path d="M72.8 269.9v.8-.8ZM72.8 270.9v19.5c0 31 53 80.6 118.6 80.6 65.5 0 118.6-49.5 118.6-80.6v-20.5.9c0 31.1-53.1 80.6-118.6 80.6C126 351.4 72.9 302 72.8 271Z" fill="#000" fill-opacity=".2"/><ellipse cx="190.5" cy="129" rx="119.5" ry="105" fill="#a66637"/></g><g transform="translate(199.5 333.4) scale(.71856)"><g fill="#DE8383"><path d="M59.8 28.1a31 31 0 1 1-62 0 31 31 0 0 1 62 0Z"/><path fill-rule="evenodd" clip-rule="evenodd" d="M57 19.5H.7A31.1 31.1 0 0 1 29 1.3c12.5 0 23.2 7.5 28 18.2Z"/></g><path fill-rule="evenodd" clip-rule="evenodd" d="M57 15.1H.7A31.1 31.1 0 0 1 29-3c12.5 0 23.2 7.5 28 18.2Z" fill="#F9F9F9"/></g><g transform="translate(280.7 235.4) scale(.71856)"><rect x="30" y="23" width="80" height="80" rx="21.3" fill="#a66637"/><rect x="38.9" y="31.9" width="42.6" height="62.2" rx="12.4" fill="#000" fill-opacity=".2"/><rect x="30" y="46.1" width="17.8" height="35.5" rx="8.9" fill="#a66637"/></g><g transform="matrix(-.71856 0 0 .71856 161.5 235.4)"><rect x="30" y="23" width="80" height="80" rx="21.3" fill="#a66637"/><rect x="38.9" y="31.9" width="42.6" height="62.2" rx="12.4" fill="#000" fill-opacity=".2"/><rect x="30" y="46.1" width="17.8" height="35.5" rx="8.9" fill="#a66637"/></g><g transform="translate(114.8 215.5) scale(.71856)"><path d="M75 75a23.9 23.9 0 1 0 40.7 22.7L75.2 75ZM211.1 75a23.9 23.9 0 1 1-40.7 22.7L211 75Z" fill="#fff"/><path d="M74.5 52.5c7.5 5 40 26 49 31.5M213 53c-7.5 5-40 26-49 31.5" stroke="#000" stroke-width="3.7" stroke-linecap="round"/><path d="M75 53c7.5 5 40 26 49 31.5M213.5 53.5c-7.5 5-40 26-49 31.5" stroke="#000" stroke-width="3.7" stroke-linecap="round"/></g><g transform="translate(127.7 288.7) scale(.71856)"><g fill="#F88888"><rect x="11" y="16" width="56.3" height="43.4" rx="21.7"/><rect x="191" y="16" width="56.3" height="43.4" rx="21.7"/></g></g><g transform="translate(193 279.4) scale(.71856)"><g fill="#000" fill-opacity=".2"><rect x="25.9" y="51.5" width="11.7" height="8.9" rx="4.4" transform="rotate(-90 25.9 51.5)"/><rect x="43.7" y="51.5" width="11.7" height="8.9" rx="4.4" transform="rotate(-90 43.7 51.5)"/><path d="M61.2 41.4c.2-.8.2-1.7.2-2.5C61.4 29.6 54 22 44.5 22H34a16.9 16.9 0 0 0-16.7 19.4A16.9 16.9 0 0 1 33.9 27h10.6C53 27 60 33.2 61.2 41.4Z"/></g></g><g transform="matrix(.52237 0 0 .52237 122.9 244.8)"><path d="M11 103V7.5h40L11 103Z" fill="#4a312c"/></g><g transform="matrix(-.52237 0 0 .52237 315.7 244.8)"><path d="M11 103V7.5h40L11 103Z" fill="#4a312c"/></g><g transform="matrix(.52237 0 0 .52237 108.7 145.6)"><g fill="#4a312c"><path d="M276 196.5a63.5 63.5 0 0 0-18.6-45c-5.9-5.8-12.9-61-20.6-64.2a63.5 63.5 0 0 0-48.6 0c-7.7 3.2-14.7 58.4-20.6 64.3a63.5 63.5 0 0 0-18.6 44.9h127Z"/><path d="M374 132c6.5 15.9 11.5 34.5 11.5 70-11 0-38.5 11-92.5-18-54.8-29.5-68.9-59.5-82-79-13 27-37 51.3-72.5 73.5C103 200.7 54.2 199.5 38 202c0-23.1 2-46 10.9-67.4A176 176 0 0 1 211 26a175 175 0 0 1 124 51.5c16.4 16.4 30.2 33.1 39 54.5Z"/></g></g></g></svg>