<svg xmlns="http://www.w3.org/2000/svg" viewBox="0 0 440 440" fill="none" shape-rendering="auto"><metadata xmlns:rdf="http://www.w3.org/1999/02/22-rdf-syntax-ns#" xmlns:xsi="http://www.w3.org/2001/XMLSchema-instance" xmlns:dc="http://purl.org/dc/elements/1.1/" xmlns:dcterms="http://purl.org/dc/terms/"><rdf:RDF><rdf:Description><dc:title>Face Generator</dc:title><dc:creator>The Visual Team</dc:creator><dc:source xsi:type="dcterms:URI">https://www.figma.com/community/file/986078800058673824</dc:source><dcterms:license xsi:type="dcterms:URI">https://creativecommons.org/licenses/by/4.0/</dcterms:license><dc:rights>Remix of „Face Generator” (https://www.figma.com/community/file/986078800058673824) by „The Visual Team”, licensed under „CC BY 4.0” (https://creativecommons.org/licenses/by/4.0/)</dc:rights></rdf:Description></rdf:RDF></metadata><mask id="viewboxMask"><rect width="440" height="440" rx="0" ry="0" x="0" y="0" fill="#fff" /></mask><g mask="url(#viewboxMask)"><g transform="matrix(.71048 0 0 .71048 24 2)"><path d="M431 317.5v-8a155.5 155.5 0 0 0-311 0v8a155.5 155.5 0 0 0 311 0Z" fill="#2c1b18"/></g><g transform="translate(81.7 150.7) scale(.71856)"><ellipse cx="190" cy="198.5" rx="132" ry="152.5" fill="#f8b788"/><path d="M322 192.4c-2.6 81.6-60.7 146.8-132 146.8-71.2 0-129.3-65.2-132-146.8v5.9c0 84.2 59.1 152.6 132 152.6 73 0 132.1-68.4 132.1-152.6v-5.9Z" fill="#000" fill-opacity=".2"/></g><g transform="translate(199.5 333.4) scale(.71856)"><path d="M59.8 28.9a31 31 0 1 1-62 0 31 31 0 0 1 62 0Z" fill="#DE8383"/><path fill-rule="evenodd" clip-rule="evenodd" d="M5.6 49.5a31 31 0 0 1 47.9-2 31 31 0 0 1-47.9 2Z" fill="#C06E6E"/><path fill-rule="evenodd" clip-rule="evenodd" d="M57.4 16.4H.4a31 31 0 0 1 57 0Z" fill="#F9F9F9"/></g><g transform="translate(280.7 235.4) scale(.71856)"><path d="M70.9 16A40.4 40.4 0 0 0 31 47.3V109c24.3-3.3 67.7-24.5 74-45 6.2-20.6-1-48-34.1-48Z" fill="#f8b788"/><path d="M69.3 27.7c-19 0-27 15-28.6 22.5v44.1c17.5-2.3 48.5-17.5 53-32.2 4.5-14.7-.7-34.4-24.4-34.4Z" fill="#000" fill-opacity=".2"/><path d="M52.4 62.7c0-11.3-7.8-15-11.7-15.4v33.3a18.5 18.5 0 0 0 11.7-18Z" fill="#f8b788"/></g><g transform="matrix(-.71856 0 0 .71856 161.5 235.4)"><path d="M70.9 16A40.4 40.4 0 0 0 31 47.3V109c24.3-3.3 67.7-24.5 74-45 6.2-20.6-1-48-34.1-48Z" fill="#f8b788"/><path d="M69.3 27.7c-19 0-27 15-28.6 22.5v44.1c17.5-2.3 48.5-17.5 53-32.2 4.5-14.7-.7-34.4-24.4-34.4Z" fill="#000" fill-opacity=".2"/><path d="M52.4 62.7c0-11.3-7.8-15-11.7-15.4v33.3a18.5 18.5 0 0 0 11.7-18Z" fill="#f8b788"/></g><g transform="translate(114.8 215.5) scale(.71856)"><circle cx="199" cy="93.3" r="11.6" fill="#161616"/><circle cx="91" cy="93.3" r="11.6" fill="#161616"/><path d="M175 68.2c4.4-3 11-9.2 24.1-9.2 11.1 0 20.4 6.8 22.1 9.2M67 68.2c4.4-3 11-9.2 24.1-9.2 11.1 0 20.4 6.8 22.1 9.2" stroke="#000" stroke-width="9.2" stroke-linecap="round"/></g><g transform="translate(127.7 288.7) scale(.71856)"></g><g transform="translate(193 279.4) scale(.71856)"><path d="M37.8 22c-7.1 9.5-20.2 29-16 31 4.3 2 18.6 2.5 25.3 2.5" stroke="#000" stroke-opacity=".5" stroke-width="4" stroke-linecap="round" stroke-linejoin="round"/></g><g transform="matrix(.52237 0 0 .52237 122.9 244.8)"><path d="M18 31.8C17.3 12.2 15 2.3 32 0c19.6 3.6 14 22.6 12 31.8-2.2 9.3 9.5 19 7.4 39.4-2 20.4-25 30-36 12.8-14-22 3.5-32.6 2.7-52.2Z" fill="#2c1b18"/></g><g transform="matrix(-.52237 0 0 .52237 315.7 244.8)"><path d="M18 31.8C17.3 12.2 15 2.3 32 0c19.6 3.6 14 22.6 12 31.8-2.2 9.3 9.5 19 7.4 39.4-2 20.4-25 30-36 12.8-14-22 3.5-32.6 2.7-52.2Z" fill="#2c1b18"/></g><g transform="matrix(.52237 0 0 .52237 108.7 145.6)"><path d="M143.3 136.7c-3.5-17 23.9-29.6 38.9-33.1 15-3.6 17.8-3.6 37.4-3.6 19.6 0 63.8 6.8 62.4 30.3-1.2 18.8-21.9 18.3-32.1 15.7 4.9 8 13.2 25.9 7.5 33.8-5.7 8-18.8 1.2-24.6-3.2-.5 5.5-5.2 18-20 24.3C198 207 194 185.7 194 174c-6.6 2.3-21.9 4.6-29.6-4.2-7.7-8.9 3.3-19.6 9.7-24-8.2 3.5-28 3.9-30.7-9.2Z" fill="#2c1b18"/><path d="M374 131c6.5 15.9 11.5 34.5 11.5 70-11 0-38.5 11-92.5-18-54.8-29.5-68.9-59.5-82-79-13 27-37 51.3-72.5 73.5C103 199.7 54.2 198.5 38 201c0-23.1 2-46 10.9-67.4A176 176 0 0 1 211 25a175 175 0 0 1 124 51.5c16.4 16.4 30.2 33.1 39 54.5Z" fill="#2c1b18"/></g></g></svg>