<svg xmlns="http://www.w3.org/2000/svg" viewBox="0 0 440 440" fill="none" shape-rendering="auto"><metadata xmlns:rdf="http://www.w3.org/1999/02/22-rdf-syntax-ns#" xmlns:xsi="http://www.w3.org/2001/XMLSchema-instance" xmlns:dc="http://purl.org/dc/elements/1.1/" xmlns:dcterms="http://purl.org/dc/terms/"><rdf:RDF><rdf:Description><dc:title>Face Generator</dc:title><dc:creator>The Visual Team</dc:creator><dc:source xsi:type="dcterms:URI">https://www.figma.com/community/file/986078800058673824</dc:source><dcterms:license xsi:type="dcterms:URI">https://creativecommons.org/licenses/by/4.0/</dcterms:license><dc:rights>Remix of „Face Generator” (https://www.figma.com/community/file/986078800058673824) by „The Visual Team”, licensed under „CC BY 4.0” (https://creativecommons.org/licenses/by/4.0/)</dc:rights></rdf:Description></rdf:RDF></metadata><mask id="viewboxMask"><rect width="440" height="440" rx="0" ry="0" x="0" y="0" fill="#fff" /></mask><g mask="url(#viewboxMask)"><g transform="matrix(.71048 0 0 .71048 24 2)"><path d="M42.3 359.7c7.7 52.3 73.5 107.6 170.4 85.4 30.6-18.3 99.5-17 139-9.2 39.5 7.9 85.6 33 157-14s41-161-27-212.5C437 175.7 410.4 93 289.7 93c-112.5 0-144.1 75.9-190.3 116.3a166.3 166.3 0 0 0-57 150.3Z" fill="#e8e1e1"/></g><g transform="translate(81.7 150.7) scale(.71856)"><path d="M325 213v-1.6C325 139.8 264.6 55 190 55S55 139.8 55 211.4a128.6 128.6 0 0 0 0 3.2c0 71.5 60.4 129.5 135 129.5s135-58 135-129.5V213Z" fill="#c07f50"/><path d="M324.6 204.8c-5.1 67-63.4 119.8-134.6 119.8-71.2 0-129.5-52.8-134.6-119.8-.3 3.3-.4 6.6-.4 9.8 0 71.5 60.4 129.5 135 129.5s135-58 135-129.5c0-3.2-.1-6.5-.4-9.8Z" fill="#000" fill-opacity=".2"/></g><g transform="translate(199.5 333.4) scale(.71856)"><path d="M59.5 28.2a31 31 0 1 1-62 0 31 31 0 0 1 62 0Z" fill="#DE8383"/></g><g transform="translate(280.7 235.4) scale(.71856)"><rect x="23" y="20" width="88" height="88.1" rx="44" fill="#c07f50"/><path d="M47.6 57.5c2.5-6 18-32 34.5-17.2 12.7 11.3-15 33.2-16.5 22.2C64 51.5 99 52 89 78.5 84.8 90 62 91 47.6 77" stroke="#000" stroke-opacity=".2" stroke-width="4" stroke-linecap="round" stroke-linejoin="round"/></g><g transform="matrix(-.71856 0 0 .71856 161.5 235.4)"><rect x="23" y="20" width="88" height="88.1" rx="44" fill="#c07f50"/><path d="M47.6 57.5c2.5-6 18-32 34.5-17.2 12.7 11.3-15 33.2-16.5 22.2C64 51.5 99 52 89 78.5 84.8 90 62 91 47.6 77" stroke="#000" stroke-opacity=".2" stroke-width="4" stroke-linecap="round" stroke-linejoin="round"/></g><g transform="translate(114.8 215.5) scale(.71856)"><path d="M74 93.1h40.4v11H74zM74 60h40.4v11H74zM173.3 93.1h40.4v11h-40.4zM173.3 60h40.4v11h-40.4z" fill="#000"/></g><g transform="translate(127.7 288.7) scale(.71856)"><g fill="#000" fill-opacity=".2"><rect x="33" y="38.5" width="12.9" height="12.9" rx="6.4"/><rect x="57.1" y="24" width="12.9" height="14.5" rx="6.4"/><rect x="76.4" y="38.5" width="12.9" height="12.9" rx="6.4"/><rect x="166.4" y="38.5" width="12.9" height="12.9" rx="6.4"/><rect x="190.5" y="24" width="12.9" height="14.5" rx="6.4"/><rect x="209.8" y="38.5" width="12.9" height="12.9" rx="6.4"/></g></g><g transform="translate(193 279.4) scale(.71856)"><path d="M33.4 22c-7.1 9.5-12 31.5-7.8 33.5 4.2 2.1 10.4 0 17 0" stroke="#000" stroke-opacity=".5" stroke-width="4" stroke-linecap="round" stroke-linejoin="round"/></g><g transform="matrix(.52237 0 0 .52237 122.9 244.8)"><path d="M10 94V8h32l-3.7 76.9L10 94Z" fill="#e8e1e1"/></g><g transform="matrix(-.52237 0 0 .52237 315.7 244.8)"><path d="M10 94V8h32l-3.7 76.9L10 94Z" fill="#e8e1e1"/></g><g transform="matrix(.52237 0 0 .52237 108.7 145.6)"><path d="M384.9 132.5a185.5 185.5 0 0 1 14.1 71H151.5l-24-47-24 47H28a185.5 185.5 0 0 1 356.9-71Z" fill="#e8e1e1"/></g></g></svg>