<svg xmlns="http://www.w3.org/2000/svg" viewBox="0 0 440 440" fill="none" shape-rendering="auto"><metadata xmlns:rdf="http://www.w3.org/1999/02/22-rdf-syntax-ns#" xmlns:xsi="http://www.w3.org/2001/XMLSchema-instance" xmlns:dc="http://purl.org/dc/elements/1.1/" xmlns:dcterms="http://purl.org/dc/terms/"><rdf:RDF><rdf:Description><dc:title>Face Generator</dc:title><dc:creator>The Visual Team</dc:creator><dc:source xsi:type="dcterms:URI">https://www.figma.com/community/file/986078800058673824</dc:source><dcterms:license xsi:type="dcterms:URI">https://creativecommons.org/licenses/by/4.0/</dcterms:license><dc:rights>Remix of „Face Generator” (https://www.figma.com/community/file/986078800058673824) by „The Visual Team”, licensed under „CC BY 4.0” (https://creativecommons.org/licenses/by/4.0/)</dc:rights></rdf:Description></rdf:RDF></metadata><mask id="viewboxMask"><rect width="440" height="440" rx="0" ry="0" x="0" y="0" fill="#fff" /></mask><g mask="url(#viewboxMask)"><g transform="matrix(.71048 0 0 .71048 24 2)"><g fill="#c93305"><path d="M287.2 100H277c-101.3 0-183.4 94-183.4 210 0 116.1 82.1 129.5 183.4 129.5h10.2c101.3 0 183.4-13.4 183.4-129.4S388.5 100 287.2 100Z"/><path d="M116.6 74.4c66.4-6.4 94 60 99.5 94 10.3 21.5 24.8 105 0 267C185 638-8 550 12 539s56.5-84.5 19-205.5 2.5-251 85.5-259ZM448.8 74.4c-66.4-6.4-94 60-99.5 94-10.3 21.5-24.8 105 0 267 31 202.5 224 114.5 204 103.5s-56.5-84.5-19-205.5-2.5-251-85.5-259Z"/></g></g><g transform="translate(81.7 150.7) scale(.71856)"><path d="M293.1 88.7C258 38.7 171.6 25.4 120.3 58 69 91 57.5 145.2 65 204.8c3.1 24.1 7 43 9 63.5 6.6 63.2 93 94.7 118.6 94.7 40.4 0 108.3-44.3 116.8-94.7 7.7-46 7-42.4 7.5-63.5.6-21 11.3-66.1-23.9-116.1Z" fill="#c07f50"/><path d="M76.2 279.7c22.6 47.6 92.6 71.3 115.6 71.3 39 0 102.8-38.9 118-85.2l-.5 2.8C301 319 233 363.5 192.6 363.5c-24 0-101.7-27.9-116.4-83.8Z" fill="#000" fill-opacity=".2"/></g><g transform="translate(199.5 333.4) scale(.71856)"><path d="M-22.5 25a17 17 0 0 1 17-16.9h65.6a17 17 0 0 1 0 34H-5.5a17 17 0 0 1-17-17Z" fill="#F9F9F9"/></g><g transform="translate(280.7 235.4) scale(.71856)"><rect x="20" y="22" width="88" height="88.1" rx="44" fill="#c07f50"/><rect x="29.8" y="31.8" width="68.4" height="68.5" rx="34.2" fill="#000" fill-opacity=".2"/><rect x="23.9" y="49.4" width="37.2" height="37.2" rx="18.6" fill="#c07f50"/></g><g transform="matrix(-.71856 0 0 .71856 161.5 235.4)"><rect x="20" y="22" width="88" height="88.1" rx="44" fill="#c07f50"/><rect x="29.8" y="31.8" width="68.4" height="68.5" rx="34.2" fill="#000" fill-opacity=".2"/><rect x="23.9" y="49.4" width="37.2" height="37.2" rx="18.6" fill="#c07f50"/></g><g transform="translate(114.8 215.5) scale(.71856)"><path d="M71 65.2c4-3 10-9.2 21.7-9.2 10 0 18.4 6.8 19.9 9.2M171 65.2c4-3 10-9.2 21.7-9.2 10 0 18.4 6.8 19.9 9.2" stroke="#000" stroke-width="4.6" stroke-linecap="round"/><path d="M88.7 90a7 7 0 1 1 13.9 0v14a7 7 0 0 1-13.9 0V90ZM188.7 90a7 7 0 1 1 13.9 0v14a7 7 0 1 1-13.9 0V90Z" fill="#000"/><path d="M79.5 76.2c-.8 3.1.4 10.2 11.5 13.9M179.5 76.2c-.8 3.1.4 10.2 11.5 13.9" stroke="#000" stroke-width="4.6" stroke-linecap="round" stroke-linejoin="round"/></g><g transform="translate(127.7 288.7) scale(.71856)"></g><g transform="translate(193 279.4) scale(.71856)"><path d="M18.6 38.3A10 10 0 0 0 29 45a10 10 0 0 0 19.4 0h.9a10 10 0 0 0 9.5-6.7 10 10 0 0 1-10.4 13.4 10 10 0 0 1-19.4 0H28a10 10 0 0 1-9.5-13.4Z" fill="#000" fill-opacity=".2"/></g><g transform="matrix(.52237 0 0 .52237 122.9 244.8)"><path d="M18 31.8C17.3 12.2 15 2.3 32 0c19.6 3.6 14 22.6 12 31.8-2.2 9.3 9.5 19 7.4 39.4-2 20.4-25 30-36 12.8-14-22 3.5-32.6 2.7-52.2Z" fill="#c93305"/></g><g transform="matrix(-.52237 0 0 .52237 315.7 244.8)"><path d="M18 31.8C17.3 12.2 15 2.3 32 0c19.6 3.6 14 22.6 12 31.8-2.2 9.3 9.5 19 7.4 39.4-2 20.4-25 30-36 12.8-14-22 3.5-32.6 2.7-52.2Z" fill="#c93305"/></g><g transform="matrix(.52237 0 0 .52237 108.7 145.6)"><g fill="#c93305"><path d="m292.5 119.2-39-41.2h-95l-36 49.3L164 115l-5.5 73.7L192 165l16.5 36.9 22.5-36.9 33 21.6-10.5-67.5h39Z"/><path d="M374 130c6.5 15.9 11.5 34.5 11.5 70-11 0-38.5 11-92.5-18-54.8-29.5-68.9-59.5-82-79-13 27-37 51.3-72.5 73.5-35.5 22.2-83.8 22.5-100 25 0-23.1 1.5-47.5 10.4-68.9A176 176 0 0 1 211 24a175 175 0 0 1 124 51.5c16.4 16.4 30.2 33.1 39 54.5Z"/></g></g></g></svg>