<svg xmlns="http://www.w3.org/2000/svg" viewBox="0 0 600 600" fill="none" shape-rendering="auto"><metadata xmlns:rdf="http://www.w3.org/1999/02/22-rdf-syntax-ns#" xmlns:xsi="http://www.w3.org/2001/XMLSchema-instance" xmlns:dc="http://purl.org/dc/elements/1.1/" xmlns:dcterms="http://purl.org/dc/terms/"><rdf:RDF><rdf:Description><dc:title>Lorelei Neutral</dc:title><dc:creator>Lisa Wischofsky</dc:creator><dc:source xsi:type="dcterms:URI">https://www.figma.com/community/file/1198749693280469639</dc:source><dcterms:license xsi:type="dcterms:URI">https://creativecommons.org/publicdomain/zero/1.0/</dcterms:license><dc:rights>Remix of „Lorelei Neutral” (https://www.figma.com/community/file/1198749693280469639) by „Lisa Wischofsky”, licensed under „CC0 1.0” (https://creativecommons.org/publicdomain/zero/1.0/)</dc:rights></rdf:Description></rdf:RDF></metadata><mask id="viewboxMask"><rect width="600" height="600" rx="0" ry="0" x="0" y="0" fill="#fff" /></mask><g mask="url(#viewboxMask)"><g transform="translate(-246 -234)"><path d="M658 387c7 1 14 2 20 5l6 5c-8 5-18 8-28 8h-17l-16 2c-6 1-10 7-13 12-6 11-8 25-10 37-4-3-3-8-3-12 0-14 2-29 10-41 4-6 10-13 17-14 11-3 23-3 34-2ZM533 426c6-1 12 0 17 3 2 0 2 1 2 3l-8 8c-3 3-8 4-12 6l-18 3-47 3c-14 1-28 1-41 4-14 4-26 10-37 18l-9 8c-1-2-1-4 1-6 3-6 9-12 14-17 16-12 35-19 55-22l69-7c5 0 9-3 14-4Z" fill="#000000"/></g><g transform="translate(-246 -234)"><path d="M669 473c8-1 16 1 22 6 3 3 6 7 6 11 1 5-4 10-9 10-4-1-6-3-8-6l-10-7c9 16 4 38-10 49-7 6-18 8-25 1-6-5-8-12-8-20-2 5-5 9-6 14-1 2-1 4-3 4-2-5-1-11 1-17 6-16 17-30 32-38 5-4 11-6 18-7ZM457 484c27 1 53 18 64 42 2 2 4 6 1 9-3 0-5-4-7-6-4-8-10-14-17-19 2 11 2 21-4 31-5 8-16 13-25 12-7-2-14-5-19-11-6-6-8-16-8-24 0-7 3-13 6-18-14 3-28 9-39 18-3 1-5 3-8 3-4-1-6-4-6-8 0-3 2-6 4-8 8-6 16-12 26-16s21-6 32-5Z" fill="#000000"/></g><g transform="translate(-246 -234)"></g><g transform="translate(-246 -234)"><path d="M667 657c2 0 4 0 5 2 2 2 1 5-1 6l-16 4c-21 3-42 7-64 9-6 0-12 2-17 0l15-5 62-13 16-3Z" fill="#000000"/></g><g transform="translate(-246 -234)"><path d="M609 602c1 9-4 16-9 23-4 3-9 6-15 6s-13-3-19-5c-4-2-8-3-11-6l5-4c9-1 17 3 25 4 4 0 7-3 9-6 5-5 9-10 15-12Z" fill="#000000"/></g><g transform="translate(-246 -234)"></g></g></svg>