<svg xmlns="http://www.w3.org/2000/svg" viewBox="0 0 600 600" fill="none" shape-rendering="auto"><metadata xmlns:rdf="http://www.w3.org/1999/02/22-rdf-syntax-ns#" xmlns:xsi="http://www.w3.org/2001/XMLSchema-instance" xmlns:dc="http://purl.org/dc/elements/1.1/" xmlns:dcterms="http://purl.org/dc/terms/"><rdf:RDF><rdf:Description><dc:title>Lorelei Neutral</dc:title><dc:creator>Lisa Wischofsky</dc:creator><dc:source xsi:type="dcterms:URI">https://www.figma.com/community/file/1198749693280469639</dc:source><dcterms:license xsi:type="dcterms:URI">https://creativecommons.org/publicdomain/zero/1.0/</dcterms:license><dc:rights>Remix of „Lorelei Neutral” (https://www.figma.com/community/file/1198749693280469639) by „Lisa Wischofsky”, licensed under „CC0 1.0” (https://creativecommons.org/publicdomain/zero/1.0/)</dc:rights></rdf:Description></rdf:RDF></metadata><mask id="viewboxMask"><rect width="600" height="600" rx="0" ry="0" x="0" y="0" fill="#fff" /></mask><g mask="url(#viewboxMask)"><g transform="translate(-246 -234)"><path d="M492 386c7 0 13 0 19 2 8 2 15 5 18 13 4 7 4 14 2 22-1 4-4 7-9 8-8 3-17 1-26-1-7-1-15-3-22-6-6-3-12-8-13-14-2-6 2-13 7-16 7-6 16-7 24-8ZM658 388c5 1 9 4 11 9 2 3 1 8 0 11-1 4-5 8-8 10-5 5-11 6-18 8-5 1-12 3-18 1-2-1-6-4-7-7-3-11 3-25 14-30 8-4 17-4 26-2Z" fill="#000000"/></g><g transform="translate(-246 -234)"><path d="M683 467c8 6 11 15 12 25 1 5 1 12-2 16-2 5-10 5-12 0-3-4-2-10-3-14-1-5-3-11-7-14-4-2-8-1-11 0 9 13 9 30 4 45-2 6-5 12-9 17-4 3-8 6-12 7-4 2-10 1-14-2-5-5-7-11-7-17-1 4-2 9-6 12-2-2-3-3-3-6-1-7 0-14 2-20 4-14 11-26 20-36 7-7 15-13 25-16 8-2 16-1 23 3ZM479 473c18 7 33 21 40 40 3 7 5 15 4 22 0 2-1 5-3 4-3-2-5-6-6-9-5-9-10-17-17-25-8-9-18-16-29-19 6 10 8 22 8 34-1 11-5 22-12 30-5 6-12 11-20 10-6 0-11-1-15-5-9-7-13-17-15-28-1-8 0-15 2-22l-7 8c-3 4-10 4-13 0s-2-9 1-12c9-15 24-27 41-31 13-3 28-2 41 3Z" fill="#000000"/></g><g transform="translate(-246 -234)"></g><g transform="translate(-246 -234)"><path d="m636 651-7 8-17 16c-9 10-19 18-32 22-18 6-38 4-57 0-10-3-21-7-31-13l-6-5c0-3 2-4 4-4l17 5 33-4c13-2 27-3 39 0l5-1 19-8c4-2 8-3 13-3 6-4 13-10 20-13Z" fill="#000000"/></g><g transform="translate(-246 -234)"><path d="M597 505h1l3 15 3 26 8 13 6 12c2 5 2 10 5 14 3 5 5 10 5 16 0 9-6 17-14 20l-19 8c-5 3-9 5-15 5-5 0-11 0-13-5-2-2 0-4 2-5l12-3 16-5 13-5c6-2 9-8 7-14l-5-8-7-17-7-19c-4-8-6-17-5-26 0-7 1-15 4-22Z" fill="#000000"/></g><g transform="translate(-246 -234)"></g></g></svg>