<svg xmlns="http://www.w3.org/2000/svg" viewBox="0 0 100 100" fill="none" shape-rendering="crispEdges"><metadata xmlns:rdf="http://www.w3.org/1999/02/22-rdf-syntax-ns#" xmlns:xsi="http://www.w3.org/2001/XMLSchema-instance" xmlns:dc="http://purl.org/dc/elements/1.1/" xmlns:dcterms="http://purl.org/dc/terms/"><rdf:RDF><rdf:Description><dc:title>Identicon</dc:title><dc:creator>DiceBear</dc:creator><dc:source xsi:type="dcterms:URI">https://www.dicebear.com</dc:source><dcterms:license xsi:type="dcterms:URI">https://creativecommons.org/publicdomain/zero/1.0/</dcterms:license><dc:rights>„Identicon” (https://www.dicebear.com) by „DiceBear”, licensed under „CC0 1.0” (https://creativecommons.org/publicdomain/zero/1.0/)</dc:rights></rdf:Description></rdf:RDF></metadata><mask id="viewboxMask"><rect width="100" height="100" rx="0" ry="0" x="0" y="0" fill="#fff" /></mask><g mask="url(#viewboxMask)"><path fill="#ffb300" d="M0 0h100v20H0z"/><path d="M20 20H0v20h20V20ZM100 20H80v20h20V20Z" fill="#ffb300"/><path d="M40 40H20v20h20V40ZM80 40H60v20h20V40Z" fill="#ffb300"/><path d="M0 60h20v20H0V60ZM80 60h20v20H80V60ZM60 60H40v20h20V60Z" fill="#ffb300"/><path d="M40 80H20v20h20V80ZM80 80H60v20h20V80Z" fill="#ffb300"/></g></svg>